<svg width="23" height="22" viewBox="0 0 23 22" fill="none" xmlns="http://www.w3.org/2000/svg">
<path d="M15.2424 10.0375C14.0006 10.0375 13.8287 11.275 13.8287 11.275H16.467C16.467 11.275 16.4842 10.0375 15.2424 10.0375ZM9.25681 11.275H6.91931V13.4234H9.1408C9.47595 13.4148 10.1033 13.3203 10.1033 12.3793C10.1033 11.2621 9.25681 11.275 9.25681 11.275Z" fill="#9126BF"/>
<path d="M11.4568 1.375C6.14161 1.375 1.83185 5.68477 1.83185 11C1.83185 16.3152 6.14161 20.625 11.4568 20.625C16.7721 20.625 21.0818 16.3152 21.0818 11C21.0818 5.68477 16.7721 1.375 11.4568 1.375ZM13.485 7.2875H16.7979V8.27578H13.485V7.2875ZM11.8092 12.4781C11.8092 14.9273 9.25685 14.85 9.25685 14.85H5.08029V6.81484H9.25685C10.5287 6.81484 11.5299 7.51523 11.5299 8.95469C11.5299 10.3941 10.3053 10.4844 10.3053 10.4844C11.9209 10.4844 11.8092 12.4781 11.8092 12.4781ZM18.0053 12.3449H13.8416C13.8416 13.8359 15.2553 13.7414 15.2553 13.7414C16.5916 13.7414 16.5443 12.8777 16.5443 12.8777H17.958C17.958 15.1723 15.208 15.0133 15.208 15.0133C11.9123 15.0133 12.1229 11.941 12.1229 11.941C12.1229 11.941 12.1186 8.85586 15.208 8.85586C18.4608 8.86016 18.0053 12.3449 18.0053 12.3449Z" fill="#9126BF"/>
<path d="M9.824 9.07932C9.824 8.24573 9.25681 8.24573 9.25681 8.24573H6.91931V10.0375H9.11072C9.48884 10.0375 9.824 9.91292 9.824 9.07932Z" fill="#9126BF"/>
</svg>
