<svg width="40" height="21" viewBox="0 0 40 21" fill="none" xmlns="http://www.w3.org/2000/svg">
<path d="M31.8205 14.1739L29.2968 11.6502C28.9894 11.3428 28.9208 10.9911 29.091 10.595C29.2605 10.1983 29.5637 10 30.0005 10H34.9995C35.4363 10 35.7395 10.1983 35.909 10.595C36.0792 10.9911 36.0106 11.3428 35.7032 11.6502L33.1795 14.1739C33.0824 14.271 32.9773 14.3438 32.864 14.3923C32.7508 14.4409 32.6294 14.4651 32.5 14.4651C32.3706 14.4651 32.2492 14.4409 32.136 14.3923C32.0227 14.3438 31.9176 14.271 31.8205 14.1739Z" fill="#9126BF"/>
<path d="M1.43466 19V4.45455H10.8949V6.66335H4.0696V10.6122H10.4048V12.821H4.0696V16.7912H10.9517V19H1.43466ZM25.5362 4.45455V19H23.1925L16.3388 9.09233H16.218V19H13.5831V4.45455H15.9411L22.7876 14.3693H22.9155V4.45455H25.5362Z" fill="#9126BF"/>
</svg>
