<svg width="23" height="22" viewBox="0 0 23 22" fill="none" xmlns="http://www.w3.org/2000/svg">
<g clip-path="url(#clip0_184_12)">
<g filter="url(#filter0_d_184_12)">
<path d="M11.8274 1.83334C10.6236 1.83334 9.43162 2.07045 8.31947 2.53111C7.20732 2.99178 6.1968 3.66699 5.34559 4.5182C3.62651 6.23728 2.66074 8.56886 2.66074 11C2.66074 15.0517 5.29157 18.4892 8.93074 19.7083C9.38907 19.7817 9.53574 19.4975 9.53574 19.25V17.7008C6.99657 18.2508 6.45574 16.4725 6.45574 16.4725C6.03407 15.4092 5.43824 15.125 5.43824 15.125C4.60407 14.5567 5.5024 14.575 5.5024 14.575C6.41907 14.6392 6.9049 15.5192 6.9049 15.5192C7.7024 16.9125 9.0499 16.5 9.5724 16.28C9.6549 15.6842 9.89324 15.2808 10.1499 15.0517C8.1149 14.8225 5.97907 14.0342 5.97907 10.5417C5.97907 9.52418 6.3274 8.70834 6.92324 8.05751C6.83157 7.82834 6.51074 6.87501 7.0149 5.63751C7.0149 5.63751 7.7849 5.39001 9.53574 6.57251C10.2599 6.37084 11.0482 6.27001 11.8274 6.27001C12.6066 6.27001 13.3949 6.37084 14.1191 6.57251C15.8699 5.39001 16.6399 5.63751 16.6399 5.63751C17.1441 6.87501 16.8232 7.82834 16.7316 8.05751C17.3274 8.70834 17.6757 9.52418 17.6757 10.5417C17.6757 14.0433 15.5307 14.8133 13.4866 15.0425C13.8166 15.3267 14.1191 15.8858 14.1191 16.7383V19.25C14.1191 19.4975 14.2657 19.7908 14.7332 19.7083C18.3724 18.48 20.9941 15.0517 20.9941 11C20.9941 9.79623 20.757 8.60423 20.2963 7.49208C19.8356 6.37993 19.1604 5.3694 18.3092 4.5182C17.458 3.66699 16.4475 2.99178 15.3353 2.53111C14.2232 2.07045 13.0312 1.83334 11.8274 1.83334Z" fill="#9126BF"/>
</g>
</g>
<defs>
<filter id="filter0_d_184_12" x="2.11074" y="1.28334" width="20.5333" height="20.0892" filterUnits="userSpaceOnUse" color-interpolation-filters="sRGB">
<feFlood flood-opacity="0" result="BackgroundImageFix"/>
<feColorMatrix in="SourceAlpha" type="matrix" values="0 0 0 0 0 0 0 0 0 0 0 0 0 0 0 0 0 0 127 0" result="hardAlpha"/>
<feOffset dx="0.55" dy="0.55"/>
<feGaussianBlur stdDeviation="0.55"/>
<feComposite in2="hardAlpha" operator="out"/>
<feColorMatrix type="matrix" values="0 0 0 0 0 0 0 0 0 0 0 0 0 0 0 0 0 0 0.25 0"/>
<feBlend mode="normal" in2="BackgroundImageFix" result="effect1_dropShadow_184_12"/>
<feBlend mode="normal" in="SourceGraphic" in2="effect1_dropShadow_184_12" result="shape"/>
</filter>
<clipPath id="clip0_184_12">
<rect width="22" height="22" fill="white" transform="translate(0.827393)"/>
</clipPath>
</defs>
</svg>
