<svg width="23" height="22" viewBox="0 0 23 22" fill="none" xmlns="http://www.w3.org/2000/svg">
<path d="M11.8274 1.83331C10.6236 1.83331 9.43162 2.07042 8.31947 2.53108C7.20732 2.99175 6.1968 3.66696 5.34559 4.51817C3.62651 6.23725 2.66074 8.56883 2.66074 11C2.66074 15.0516 5.29157 18.4891 8.93074 19.7083C9.38907 19.7816 9.53574 19.4975 9.53574 19.25V17.7008C6.99657 18.2508 6.45574 16.4725 6.45574 16.4725C6.03407 15.4091 5.43824 15.125 5.43824 15.125C4.60407 14.5566 5.5024 14.575 5.5024 14.575C6.41907 14.6391 6.9049 15.5191 6.9049 15.5191C7.7024 16.9125 9.0499 16.5 9.5724 16.28C9.6549 15.6841 9.89324 15.2808 10.1499 15.0516C8.1149 14.8225 5.97907 14.0341 5.97907 10.5416C5.97907 9.52415 6.3274 8.70831 6.92324 8.05748C6.83157 7.82831 6.51074 6.87498 7.0149 5.63748C7.0149 5.63748 7.7849 5.38998 9.53574 6.57248C10.2599 6.37081 11.0482 6.26998 11.8274 6.26998C12.6066 6.26998 13.3949 6.37081 14.1191 6.57248C15.8699 5.38998 16.6399 5.63748 16.6399 5.63748C17.1441 6.87498 16.8232 7.82831 16.7316 8.05748C17.3274 8.70831 17.6757 9.52415 17.6757 10.5416C17.6757 14.0433 15.5307 14.8133 13.4866 15.0425C13.8166 15.3266 14.1191 15.8858 14.1191 16.7383V19.25C14.1191 19.4975 14.2657 19.7908 14.7332 19.7083C18.3724 18.48 20.9941 15.0516 20.9941 11C20.9941 9.7962 20.757 8.6042 20.2963 7.49205C19.8356 6.3799 19.1604 5.36937 18.3092 4.51817C17.458 3.66696 16.4475 2.99175 15.3353 2.53108C14.2232 2.07042 13.0312 1.83331 11.8274 1.83331Z" fill="#9126BF"/>
</svg>
