<svg width="528" height="305" viewBox="0 0 528 305" fill="none" xmlns="http://www.w3.org/2000/svg">
<g id="image-comp" clip-path="url(#clip0_270_371)">
<g id="Asset 17">
<g id="Clip path group">
<mask id="mask0_270_371" style="mask-type:luminance" maskUnits="userSpaceOnUse" x="0" y="0" width="528" height="305">
<g id="clip0_3_49751">
<path id="Vector" d="M528 0H0V304.792H528V0Z" fill="white"/>
</g>
</mask>
<g mask="url(#mask0_270_371)">
<g id="Asset 17_2">
<g id="Layer 2">
<g id="Layer 1">
<path id="Vector_2" d="M499.766 184.393C481.12 232.672 446.064 274.969 397.37 293.558C391.037 295.972 384.57 298.02 378.002 299.692C343.262 308.549 305.255 305.468 273.231 289.328C259.639 282.473 247.245 273.415 233.604 266.658C219.963 259.901 204.386 255.478 189.539 258.814C176.755 261.685 165.969 269.915 155.11 277.246C129.51 294.53 98.7283 308.208 68.4144 302.272C54.4657 299.544 40.7304 291.987 34.2524 279.355C19.9345 251.429 46.9375 218.227 41.4688 187.343C37.9693 167.577 21.9857 152.775 12.0493 135.33C-4.9558 105.493 -2.94555 65.8577 16.9929 37.8988C36.9314 9.93983 73.7396 -4.89094 107.487 1.45163C148.64 9.18906 179.754 44.0156 219.77 56.3397C244.796 64.0402 271.967 61.7428 295.869 51.6012C334.486 35.2116 387.541 10.0752 430.999 14.1696C454.109 16.348 476.775 26.6044 492.029 44.1182C511.311 66.2269 517.091 97.6156 513.875 126.768C511.668 146.503 506.925 165.871 499.766 184.393Z" fill="url(#paint0_linear_270_371)"/>
<path id="Vector_2_2" d="M492.643 152.284C491.786 152.283 490.933 152.18 490.1 151.976C487.466 151.329 485.181 149.702 483.708 147.425C482.235 145.149 481.686 142.396 482.174 139.729C482.658 137.062 484.147 134.682 486.33 133.073C488.512 131.466 491.228 130.751 493.919 131.077C496.611 131.403 499.076 132.744 500.812 134.826C502.551 136.908 503.425 139.574 503.265 142.281C503.101 144.987 501.911 147.53 499.938 149.388C497.964 151.248 495.355 152.283 492.643 152.284ZM492.643 135.8C491.232 135.805 489.874 136.326 488.82 137.265C487.766 138.203 487.093 139.494 486.924 140.895C486.76 142.295 487.109 143.708 487.909 144.868C488.713 146.028 489.911 146.855 491.281 147.193C492.073 147.384 492.898 147.404 493.702 147.253C494.502 147.103 495.261 146.784 495.93 146.318C496.598 145.852 497.164 145.25 497.583 144.551C498.001 143.852 498.272 143.072 498.367 142.262C498.465 141.452 498.387 140.632 498.145 139.853C497.903 139.075 497.497 138.357 496.955 137.747C496.414 137.136 495.753 136.647 495.007 136.312C494.264 135.976 493.46 135.802 492.643 135.8Z" fill="#E7F6FF"/>
<path id="Vector_3" d="M491.169 165.745C491.772 163.25 490.242 160.737 487.744 160.132C485.249 159.527 482.739 161.059 482.131 163.554C481.528 166.049 483.059 168.562 485.553 169.167C488.051 169.771 490.562 168.24 491.169 165.745Z" fill="#E7F6FF"/>
<path id="Vector_4" d="M63.4698 162.404C60.6519 162.343 57.9721 161.172 56.012 159.147C54.052 157.121 52.9699 154.405 53.0006 151.587C53.0314 148.768 54.1726 146.076 56.1765 144.094C58.1803 142.111 60.8851 141 63.7036 141C66.5221 141 69.2269 142.111 71.2308 144.094C73.2346 146.076 74.3758 148.768 74.4065 151.587C74.4374 154.405 73.3553 157.121 71.3952 159.147C69.4351 161.172 66.7553 162.343 63.9375 162.404H63.4698ZM63.4698 145.924H63.2277C61.7058 145.958 60.2584 146.589 59.1996 147.683C58.1408 148.777 57.5562 150.244 57.5727 151.766C57.5892 153.288 58.2054 154.742 59.2876 155.813C60.3698 156.883 61.8306 157.484 63.3528 157.484C64.8751 157.484 66.3359 156.883 67.4181 155.813C68.5003 154.742 69.1165 153.288 69.133 151.766C69.1495 150.244 68.5649 148.777 67.5061 147.683C66.4473 146.589 64.9999 145.958 63.478 145.924H63.4698Z" fill="#E7F6FF"/>
<path id="Vector_5" d="M54.8486 182.292C57.4134 182.181 59.4028 180.013 59.2922 177.448C59.1815 174.883 57.0127 172.894 54.448 173.004C51.8832 173.115 49.8938 175.284 50.0044 177.849C50.115 180.413 52.2839 182.403 54.8486 182.292Z" fill="#E7F6FF"/>
<path id="Vector_6" d="M39.8291 132.972C37.2748 132.975 34.8042 132.063 32.8645 130.401C30.9248 128.739 29.6436 126.438 29.2535 123.914C28.8637 121.39 29.3901 118.809 30.7378 116.64C32.0855 114.47 34.1654 112.855 36.6011 112.086C39.0364 111.317 41.667 111.445 44.0161 112.448C46.3653 113.451 48.2779 115.261 49.4077 117.552C50.5376 119.842 50.81 122.462 50.1757 124.936C49.5415 127.41 48.0424 129.576 45.9501 131.04C44.1556 132.296 42.019 132.97 39.8291 132.972ZM39.7962 116.496C38.3017 116.495 36.8645 117.07 35.7835 118.102C34.7029 119.135 34.0621 120.544 33.9952 122.037C33.9279 123.53 34.4395 124.991 35.4233 126.116C36.4071 127.241 37.7868 127.943 39.2756 128.076C40.764 128.208 42.2463 127.761 43.4135 126.828C44.5806 125.894 45.3425 124.546 45.5402 123.065C45.738 121.584 45.3564 120.083 44.4752 118.876C43.594 117.67 42.2807 116.849 40.8096 116.587C40.4752 116.527 40.1359 116.497 39.7962 116.496Z" fill="#E7F6FF"/>
<path id="Vector_7" d="M269.081 47.9316C271.183 46.4575 271.692 43.5591 270.218 41.4569C268.744 39.3553 265.845 38.8462 263.743 40.3201C261.641 41.7941 261.133 44.6926 262.606 46.7948C264.08 48.8965 266.979 49.4056 269.081 47.9316Z" fill="#E7F6FF"/>
<path id="Vector_8" d="M506.57 96.0982C506.57 92.7111 505.224 89.4624 502.831 87.0673C500.434 84.6719 497.187 83.3263 493.798 83.3263C493.515 83.3263 493.235 83.3263 492.957 83.354C492.976 83.0768 492.985 82.7964 492.985 82.513C492.985 80.698 492.597 78.9036 491.848 77.2499C491.1 75.596 490.009 74.1207 488.645 72.9224C487.28 71.7241 485.678 70.8301 483.941 70.3002C482.206 69.7701 480.376 69.6164 478.577 69.8489C476.775 70.0818 475.047 70.6955 473.501 71.6492C471.957 72.6033 470.633 73.8755 469.619 75.381C468.606 76.8867 467.925 78.5912 467.62 80.3807C467.318 82.1705 467.398 84.0043 467.86 85.7599C466.317 84.6408 464.543 83.8811 462.666 83.537C460.79 83.1929 458.862 83.2733 457.023 83.772C455.181 84.2705 453.477 85.1749 452.029 86.4188C450.585 87.6628 449.439 89.2144 448.669 90.9599C447.901 92.7056 447.535 94.6008 447.597 96.5067C447.658 98.4126 448.145 100.28 449.023 101.974C449.898 103.667 451.142 105.142 452.664 106.291C454.186 107.44 455.945 108.234 457.815 108.614C458.579 110.638 459.842 112.434 461.49 113.836C463.135 115.237 465.112 116.197 467.232 116.626C469.348 117.055 471.545 116.939 473.605 116.289C475.666 115.639 477.53 114.476 479.021 112.909C480.546 114.06 482.308 114.854 484.181 115.233C486.054 115.612 487.985 115.566 489.837 115.099C491.691 114.632 493.413 113.756 494.883 112.534C496.352 111.313 497.526 109.778 498.324 108.041C500.748 107.123 502.834 105.488 504.309 103.355C505.782 101.221 506.57 98.6908 506.57 96.0982Z" fill="white"/>
<path id="Vector_9" d="M78.5434 70.4233C78.5449 68.8073 78.228 67.2067 77.6106 65.7132C76.9935 64.2197 76.0881 62.8624 74.9458 61.7189C73.8039 60.5755 72.4478 59.6683 70.9548 59.0494C69.4622 58.4302 67.8619 58.1113 66.2459 58.111C65.973 58.111 65.703 58.111 65.436 58.1377C65.4538 57.8707 65.4627 57.6007 65.4627 57.3277C65.4624 55.5797 65.0894 53.8515 64.3685 52.2587C63.6478 50.666 62.5958 49.2452 61.2827 48.0911C59.9693 46.937 58.4253 46.076 56.7532 45.5656C55.0811 45.0552 53.3194 44.9071 51.5856 45.1312C49.8519 45.3552 48.1858 45.9463 46.6983 46.865C45.2109 47.7837 43.9365 49.0089 42.9599 50.4589C41.9833 51.9089 41.327 53.5505 41.0348 55.2741C40.7425 56.9978 40.8211 58.764 41.2652 60.4548C39.7786 59.3766 38.0694 58.645 36.2632 58.3139C34.4569 57.9825 32.5993 58.06 30.8269 58.54C29.0544 59.0203 27.4119 59.8914 26.0201 61.0894C24.6282 62.2874 23.5221 63.7818 22.7832 65.4628C22.0442 67.1441 21.6911 68.9693 21.7497 70.8048C21.8082 72.6401 22.277 74.4392 23.1217 76.0698C23.9663 77.7006 25.1654 79.1215 26.6308 80.2281C28.0962 81.3347 29.7909 82.0996 31.5904 82.4657C32.3258 84.4125 33.5431 86.141 35.1284 87.4891C36.7138 88.8375 38.6153 89.7614 40.655 90.1747C42.6946 90.588 44.8058 90.4767 46.7909 89.8519C48.7759 89.2271 50.57 88.1086 52.0051 86.6014C53.4734 87.7098 55.1716 88.4747 56.9746 88.8396C58.7775 89.2048 60.6395 89.1609 62.4231 88.7108C64.2068 88.2611 65.867 87.417 67.2813 86.2407C68.6956 85.0643 69.8281 83.5859 70.5953 81.9138C72.929 81.0306 74.939 79.4585 76.3586 77.4063C77.7783 75.3542 78.5401 72.9187 78.5434 70.4233Z" fill="white"/>
<path id="Vector_10" d="M391.458 304.792H146.74V299.459H391.458C392.166 299.459 392.844 299.74 393.344 300.239C393.844 300.739 394.125 301.418 394.125 302.125C394.125 302.833 393.844 303.511 393.344 304.011C392.844 304.511 392.166 304.792 391.458 304.792Z" fill="#426572"/>
<path id="Vector_11" d="M135.795 304.792H120.833C120.126 304.792 119.447 304.511 118.947 304.011C118.447 303.511 118.166 302.833 118.166 302.125C118.166 301.418 118.447 300.739 118.947 300.239C119.447 299.74 120.126 299.459 120.833 299.459H135.795C136.502 299.459 137.18 299.74 137.681 300.239C138.181 300.739 138.462 301.418 138.462 302.125C138.462 302.833 138.181 303.511 137.681 304.011C137.18 304.511 136.502 304.792 135.795 304.792Z" fill="#426572"/>
<path id="Vector_12" d="M111.122 304.792H106.355C105.648 304.792 104.969 304.511 104.469 304.011C103.969 303.511 103.688 302.833 103.688 302.125C103.688 301.418 103.969 300.739 104.469 300.239C104.969 299.74 105.648 299.459 106.355 299.459H111.122C111.829 299.459 112.508 299.74 113.008 300.239C113.508 300.739 113.789 301.418 113.789 302.125C113.789 302.833 113.508 303.511 113.008 304.011C112.508 304.511 111.829 304.792 111.122 304.792Z" fill="#426572"/>
<path id="Vector_13" d="M477.268 304.792H402.051V299.459H477.268C477.973 299.459 478.654 299.74 479.155 300.239C479.655 300.739 479.934 301.418 479.934 302.125C479.934 302.833 479.655 303.511 479.155 304.011C478.654 304.511 477.973 304.792 477.268 304.792Z" fill="#426572"/>
<path id="Vector_14" d="M92.7181 304.792H17.4976V299.459H92.7181C93.4254 299.459 94.1035 299.74 94.6036 300.239C95.1037 300.739 95.3847 301.418 95.3847 302.125C95.3847 302.833 95.1037 303.511 94.6036 304.011C94.1035 304.511 93.4254 304.792 92.7181 304.792Z" fill="#426572"/>
<path id="Vector_15" d="M289.329 222.149H225.329C222.611 222.149 220.406 224.353 220.406 227.072V288.61C220.406 291.33 222.611 293.533 225.329 293.533H289.329C292.048 293.533 294.252 291.33 294.252 288.61V227.072C294.252 224.353 292.048 222.149 289.329 222.149Z" fill="#E8EDF7"/>
<path id="Vector_16" d="M294.252 251.687H220.406V274.251H294.252V251.687Z" fill="#C1CEDE"/>
<path id="Vector_17" d="M288.308 296.816H224.308C222.349 296.816 220.471 296.038 219.086 294.653C217.701 293.268 216.923 291.39 216.923 289.431V227.892C216.923 225.934 217.701 224.056 219.086 222.671C220.471 221.286 222.349 220.508 224.308 220.508H288.308C290.266 220.508 292.144 221.286 293.529 222.671C294.914 224.056 295.692 225.934 295.692 227.892V289.431C295.692 291.39 294.914 293.268 293.529 294.653C292.144 296.038 290.266 296.816 288.308 296.816ZM224.308 225.431C223.655 225.431 223.029 225.69 222.567 226.152C222.105 226.614 221.846 227.24 221.846 227.892V289.431C221.846 290.084 222.105 290.71 222.567 291.172C223.029 291.633 223.655 291.892 224.308 291.892H288.308C288.96 291.892 289.586 291.633 290.048 291.172C290.51 290.71 290.769 290.084 290.769 289.431V227.892C290.769 227.24 290.51 226.614 290.048 226.152C289.586 225.69 288.96 225.431 288.308 225.431H224.308Z" fill="#426572"/>
<path id="Vector_18" d="M444.201 52.7053V242.244C444.201 246.767 442.704 251.163 439.947 254.748C437.19 258.334 433.325 260.907 428.952 262.067C427.241 262.519 425.477 262.746 423.705 262.744H91.3683C85.9279 262.744 80.7103 260.583 76.8637 256.736C73.0167 252.889 70.8555 247.672 70.8555 242.231V52.6929C70.8497 48.9042 71.8979 45.1881 73.8832 41.9606C74.1416 41.5504 74.4165 41.1401 74.7037 40.73C76.963 37.5834 80.0666 35.1399 83.6555 33.6818C86.0982 32.6886 88.7107 32.18 91.3478 32.1844H423.676C426.371 32.1827 429.042 32.7124 431.532 33.743C434.023 34.7737 436.287 36.2852 438.191 38.191C440.099 40.0968 441.608 42.3594 442.642 44.8501C443.672 47.3407 444.201 50.0099 444.201 52.7053Z" fill="#E8EDF7"/>
<path id="Vector_19" d="M421.239 266.046H88.9312C82.838 266.046 76.9943 263.626 72.6858 259.317C68.3773 255.009 65.9568 249.165 65.9568 243.072V53.5336C65.9506 47.7301 68.1504 42.1412 72.1106 37.8987C72.3732 37.6115 72.6686 37.312 73.0296 36.9633C77.3004 32.8505 83.0017 30.5572 88.9312 30.5674H421.239C427.331 30.5674 433.177 32.9879 437.485 37.2964C441.793 41.605 444.213 47.4487 444.213 53.5418V243.08C444.217 246.098 443.622 249.087 442.47 251.876C441.317 254.665 439.627 257.199 437.493 259.333C435.356 261.467 432.824 263.159 430.035 264.312C427.245 265.466 424.258 266.058 421.239 266.055V266.046ZM88.9312 35.4823C84.2719 35.4735 79.7919 37.2772 76.4389 40.512C76.1558 40.7828 75.9301 41.0125 75.7291 41.23C72.6103 44.5687 70.8795 48.9691 70.8881 53.5377V243.076C70.8881 247.863 72.79 252.455 76.1751 255.84C79.5605 259.226 84.1517 261.127 88.9394 261.127H421.247C423.618 261.131 425.969 260.666 428.16 259.76C430.351 258.854 432.34 257.525 434.018 255.847C435.696 254.171 437.025 252.179 437.932 249.988C438.839 247.796 439.302 245.447 439.298 243.076V53.5377C439.298 48.75 437.395 44.1588 434.01 40.7735C430.626 37.3882 426.035 35.4864 421.247 35.4864L88.9312 35.4823Z" fill="#426572"/>
<path id="Vector_20" d="M417.391 45.3284H93.5918C86.8238 45.3284 81.3374 50.8151 81.3374 57.5827V239.843C81.3374 246.611 86.8238 252.098 93.5918 252.098H417.391C424.16 252.098 429.645 246.611 429.645 239.843V57.5827C429.645 50.8151 424.16 45.3284 417.391 45.3284Z" fill="#C1CEDE"/>
<path id="Vector_21" d="M95.4339 51.8925H415.541C417.374 51.8925 419.13 52.6203 420.427 53.9163C421.723 55.2119 422.449 56.969 422.449 58.8012V218.867H88.5251V58.8012C88.5251 56.969 89.2529 55.2119 90.5485 53.9163C91.8441 52.6203 93.6017 51.8925 95.4339 51.8925Z" fill="#F1F6FE"/>
<path id="Vector_22" d="M428.825 218.046V239.023C428.825 242.272 427.532 245.389 425.235 247.687C422.937 249.985 419.819 251.276 416.57 251.277H92.7712C89.5212 251.277 86.404 249.986 84.1062 247.688C81.8079 245.39 80.5168 242.273 80.5168 239.023V218.046H87.7086V218.867H421.633V218.046H428.825Z" fill="#E8EDF7"/>
<path id="Vector_23" d="M429.017 217.226H81.5303V224.61H429.017V217.226Z" fill="#C1CEDE"/>
<path id="Vector_24" d="M428.619 215.585H82.363V220.508H428.619V215.585Z" fill="#426572"/>
<path id="Vector_25" d="M378.966 66.2515H127.889C125.171 66.2515 122.966 68.4558 122.966 71.1745V197.534C122.966 200.253 125.171 202.457 127.889 202.457H378.966C381.685 202.457 383.889 200.253 383.889 197.534V71.1745C383.889 68.4558 381.685 66.2515 378.966 66.2515Z" fill="white"/>
<path id="Vector_26" d="M127.069 90.0463H384.71V72.7417L379.787 66.2515H154.146H131.992L123.787 72.7417V90.0463H127.069Z" fill="#E2F2FF"/>
<path id="Vector_27" d="M379.787 204.918H128.71C126.751 204.918 124.873 204.14 123.488 202.755C122.103 201.371 121.325 199.492 121.325 197.533V71.1745C121.325 69.216 122.103 67.3378 123.488 65.9528C124.873 64.5682 126.751 63.7899 128.71 63.7899H379.787C381.745 63.7899 383.623 64.5682 385.008 65.9528C386.393 67.3378 387.171 69.216 387.171 71.1745V197.533C387.171 199.492 386.393 201.371 385.008 202.755C383.623 204.14 381.745 204.918 379.787 204.918ZM128.71 68.713C128.057 68.713 127.431 68.9723 126.969 69.4342C126.508 69.8958 126.248 70.5218 126.248 71.1745V197.533C126.248 198.187 126.508 198.813 126.969 199.274C127.431 199.736 128.057 199.995 128.71 199.995H379.787C380.439 199.995 381.066 199.736 381.527 199.274C381.989 198.813 382.248 198.187 382.248 197.533V71.1745C382.248 70.5218 381.989 69.8958 381.527 69.4342C381.066 68.9723 380.439 68.713 379.787 68.713H128.71Z" fill="#426572"/>
<path id="Vector_28" d="M315.865 284.918H196.201C193.482 284.918 191.278 287.122 191.278 289.841V295.175C191.278 297.894 193.482 300.098 196.201 300.098H315.865C318.584 300.098 320.788 297.894 320.788 295.175V289.841C320.788 287.122 318.584 284.918 315.865 284.918Z" fill="#E8EDF7"/>
<path id="Vector_29" d="M316.406 302.969H196.743C194.784 302.969 192.906 302.192 191.521 300.807C190.136 299.422 189.358 297.543 189.358 295.585V290.251C189.358 288.293 190.136 286.415 191.521 285.03C192.906 283.645 194.784 282.867 196.743 282.867H316.406C318.365 282.867 320.243 283.645 321.628 285.03C323.013 286.415 323.791 288.293 323.791 290.251V295.585C323.791 297.543 323.013 299.422 321.628 300.807C320.243 302.192 318.365 302.969 316.406 302.969ZM196.743 287.79C196.09 287.79 195.464 288.049 195.002 288.511C194.54 288.973 194.281 289.599 194.281 290.251V295.585C194.281 296.238 194.54 296.864 195.002 297.326C195.464 297.787 196.09 298.046 196.743 298.046H316.406C317.059 298.046 317.685 297.787 318.147 297.326C318.608 296.864 318.868 296.238 318.868 295.585V290.251C318.868 289.599 318.608 288.973 318.147 288.511C317.685 288.049 317.059 287.79 316.406 287.79H196.743Z" fill="#426572"/>
<path id="Vector_30" d="M138.765 82.354C140.577 82.354 142.047 80.8849 142.047 79.072C142.047 77.2595 140.577 75.7899 138.765 75.7899C136.952 75.7899 135.483 77.2595 135.483 79.072C135.483 80.8849 136.952 82.354 138.765 82.354Z" fill="#CADCE8"/>
<path id="Vector_31" d="M148.611 82.354C150.424 82.354 151.893 80.8849 151.893 79.072C151.893 77.2595 150.424 75.7899 148.611 75.7899C146.799 75.7899 145.329 77.2595 145.329 79.072C145.329 80.8849 146.799 82.354 148.611 82.354Z" fill="#CADCE8"/>
<path id="Vector_32" d="M158.457 82.354C160.27 82.354 161.739 80.8849 161.739 79.072C161.739 77.2595 160.27 75.7899 158.457 75.7899C156.645 75.7899 155.175 77.2595 155.175 79.072C155.175 80.8849 156.645 82.354 158.457 82.354Z" fill="#CADCE8"/>
<path id="Vector_33" d="M371.996 75.7899H172.201C170.728 75.7899 169.534 76.9838 169.534 78.4566V79.6874C169.534 81.1602 170.728 82.354 172.201 82.354H371.996C373.469 82.354 374.663 81.1602 374.663 79.6874V78.4566C374.663 76.9838 373.469 75.7899 371.996 75.7899Z" fill="#CADCE8"/>
<path id="Vector_34" d="M367.278 100.713H143.278C140.559 100.713 138.355 102.917 138.355 105.636V142.559C138.355 145.278 140.559 147.482 143.278 147.482H367.278C369.997 147.482 372.201 145.278 372.201 142.559V105.636C372.201 102.917 369.997 100.713 367.278 100.713Z" fill="#9126BF"/>
<path id="Vector_35" d="M366.868 150.764H142.868C140.909 150.764 139.031 149.986 137.646 148.601C136.261 147.217 135.483 145.338 135.483 143.38V106.457C135.483 104.498 136.261 102.62 137.646 101.235C139.031 99.8502 140.909 99.072 142.868 99.072H366.868C368.826 99.072 370.704 99.8502 372.089 101.235C373.474 102.62 374.252 104.498 374.252 106.457V143.38C374.252 145.338 373.474 147.217 372.089 148.601C370.704 149.986 368.826 150.764 366.868 150.764ZM142.868 103.995C142.215 103.995 141.589 104.254 141.127 104.716C140.665 105.178 140.406 105.804 140.406 106.457V143.38C140.406 144.033 140.665 144.659 141.127 145.12C141.589 145.582 142.215 145.841 142.868 145.841H366.868C367.52 145.841 368.146 145.582 368.608 145.12C369.07 144.659 369.329 144.033 369.329 143.38V106.457C369.329 105.804 369.07 105.178 368.608 104.716C368.146 104.254 367.52 103.995 366.868 103.995H142.868Z" fill="#426572"/>
<path id="Vector_36" d="M205.21 161.841H144.981C142.262 161.841 140.058 164.045 140.058 166.764V182.764C140.058 185.483 142.262 187.687 144.981 187.687H205.21C207.929 187.687 210.134 185.483 210.134 182.764V166.764C210.134 164.045 207.929 161.841 205.21 161.841Z" fill="#BAD977"/>
<path id="Vector_37" d="M204.332 190.559H144.098C142.14 190.559 140.262 189.781 138.877 188.396C137.492 187.012 136.714 185.133 136.714 183.175V167.175C136.714 165.216 137.492 163.338 138.877 161.953C140.262 160.568 142.14 159.79 144.098 159.79H204.332C206.291 159.79 208.169 160.568 209.554 161.953C210.939 163.338 211.717 165.216 211.717 167.175V183.175C211.717 185.133 210.939 187.012 209.554 188.396C208.169 189.781 206.291 190.559 204.332 190.559ZM144.103 164.713C143.45 164.713 142.824 164.972 142.362 165.434C141.9 165.896 141.641 166.522 141.641 167.175V183.175C141.641 183.828 141.9 184.454 142.362 184.915C142.824 185.377 143.45 185.636 144.103 185.636H204.332C204.985 185.636 205.611 185.377 206.073 184.915C206.535 184.454 206.794 183.828 206.794 183.175V167.175C206.794 166.522 206.535 165.896 206.073 165.434C205.611 164.972 204.985 164.713 204.332 164.713H144.103Z" fill="#426572"/>
<path id="Vector_38" d="M285.424 161.841H225.194C222.475 161.841 220.271 164.045 220.271 166.764V182.764C220.271 185.483 222.475 187.687 225.194 187.687H285.424C288.142 187.687 290.347 185.483 290.347 182.764V166.764C290.347 164.045 288.142 161.841 285.424 161.841Z" fill="#BAD977"/>
<path id="Vector_39" d="M284.546 190.559H224.312C222.353 190.559 220.475 189.781 219.09 188.396C217.705 187.012 216.927 185.133 216.927 183.175V167.175C216.927 165.216 217.705 163.338 219.09 161.953C220.475 160.568 222.353 159.79 224.312 159.79H284.546C286.504 159.79 288.382 160.568 289.767 161.953C291.152 163.338 291.93 165.216 291.93 167.175V183.175C291.93 185.133 291.152 187.012 289.767 188.396C288.382 189.781 286.504 190.559 284.546 190.559ZM224.316 164.713C223.663 164.713 223.037 164.972 222.575 165.434C222.114 165.896 221.854 166.522 221.854 167.175V183.175C221.854 183.828 222.114 184.454 222.575 184.915C223.037 185.377 223.663 185.636 224.316 185.636H284.546C285.198 185.636 285.824 185.377 286.286 184.915C286.748 184.454 287.007 183.828 287.007 183.175V167.175C287.007 166.522 286.748 165.896 286.286 165.434C285.824 164.972 285.198 164.713 284.546 164.713H224.316Z" fill="#426572"/>
<path id="Vector_40" d="M365.637 161.841H305.407C302.688 161.841 300.484 164.045 300.484 166.764V182.764C300.484 185.483 302.688 187.687 305.407 187.687H365.637C368.356 187.687 370.56 185.483 370.56 182.764V166.764C370.56 164.045 368.356 161.841 365.637 161.841Z" fill="#BAD977"/>
<path id="Vector_41" d="M364.759 190.559H304.525C302.567 190.559 300.689 189.781 299.303 188.396C297.918 187.012 297.141 185.133 297.141 183.175V167.175C297.141 165.216 297.918 163.338 299.303 161.953C300.689 160.568 302.567 159.79 304.525 159.79H364.759C366.718 159.79 368.596 160.568 369.981 161.953C371.366 163.338 372.144 165.216 372.144 167.175V183.175C372.144 185.133 371.366 187.012 369.981 188.396C368.596 189.781 366.718 190.559 364.759 190.559ZM304.529 164.713C303.877 164.713 303.251 164.972 302.789 165.434C302.327 165.896 302.068 166.522 302.068 167.175V183.175C302.068 183.828 302.327 184.454 302.789 184.915C303.251 185.377 303.877 185.636 304.529 185.636H364.759C365.412 185.636 366.038 185.377 366.5 184.915C366.961 184.454 367.221 183.828 367.221 183.175V167.175C367.221 166.522 366.961 165.896 366.5 165.434C366.038 164.972 365.412 164.713 364.759 164.713H304.529Z" fill="#426572"/>
<path id="Vector_42" d="M417.387 253.739H93.5919C89.6903 253.735 85.9496 252.183 83.1911 249.424C80.4321 246.665 78.8805 242.924 78.876 239.023V56.7622C78.8805 52.8607 80.4321 49.1204 83.1911 46.3614C85.9496 43.6024 89.6903 42.0508 93.5919 42.0463H417.387C421.288 42.0508 425.03 43.6024 427.787 46.3614C430.548 49.1204 432.099 52.8607 432.103 56.7622V239.019C432.099 242.921 430.548 246.663 427.791 249.422C425.03 252.182 421.288 253.735 417.387 253.739ZM93.5919 46.9694C90.9958 46.9727 88.5067 48.0057 86.6708 49.8412C84.835 51.6771 83.8023 54.1661 83.7991 56.7622V239.019C83.8023 241.615 84.835 244.104 86.6708 245.94C88.5067 247.776 90.9958 248.808 93.5919 248.811H417.387C419.984 248.808 422.474 247.776 424.308 245.94C426.142 244.104 427.175 241.615 427.18 239.019V56.7622C427.175 54.1661 426.142 51.6771 424.308 49.8412C422.474 48.0057 419.984 46.9727 417.387 46.9694H93.5919Z" fill="#426572"/>
<path id="Vector_43" opacity="0.1" d="M45.5876 78.9282C46.2301 79.2268 46.9304 79.3807 47.6389 79.3794H45.5876V78.9282Z" fill="#606060"/>
<path id="Vector_51" d="M404.562 174.888V276.579C404.562 279.298 406.766 281.502 409.485 281.502H466.56C469.28 281.502 471.483 279.298 471.483 276.579V174.888C471.483 172.17 469.28 169.965 466.56 169.965H409.485C406.766 169.965 404.562 172.17 404.562 174.888Z" fill="white"/>
<path id="Vector_52" d="M471.483 176.787V277.415C471.479 278.856 470.905 280.237 469.887 281.258C468.87 282.279 467.491 282.857 466.051 282.867H410.018C408.574 282.863 407.189 282.287 406.168 281.266C405.146 280.244 404.571 278.86 404.566 277.415V273.78H456.037C457.485 273.776 458.872 273.197 459.893 272.171C460.915 271.145 461.489 269.756 461.489 268.307V171.335H466.051C467.491 171.345 468.87 171.923 469.887 172.944C470.905 173.965 471.479 175.346 471.483 176.787Z" fill="#DEE6F1"/>
<path id="Vector_53" d="M465.908 284.016H408.382C406.892 284.012 405.441 283.54 404.234 282.666C403.305 282.004 402.547 281.13 402.023 280.117C401.5 279.104 401.225 277.981 401.223 276.84V174.686C401.221 173.682 401.434 172.689 401.846 171.774C402.41 170.51 403.326 169.437 404.486 168.684C405.646 167.93 406.999 167.529 408.382 167.527H465.912C467.344 167.535 468.739 167.969 469.92 168.773C471.102 169.576 472.021 170.714 472.554 172.04L472.755 172.451V172.594C472.964 173.271 473.071 173.977 473.071 174.686V276.84C473.063 278.562 472.439 280.224 471.307 281.525C470.179 282.825 468.62 283.677 466.917 283.925C466.585 283.98 466.244 284.01 465.908 284.016ZM408.382 172.479C407.947 172.478 407.522 172.604 407.158 172.841C406.794 173.078 406.506 173.415 406.33 173.813C406.202 174.096 406.136 174.404 406.138 174.715V276.869C406.14 277.225 406.227 277.576 406.392 277.892C406.556 278.208 406.794 278.48 407.085 278.686C407.461 278.955 407.911 279.098 408.373 279.097H465.904C466.002 279.104 466.101 279.104 466.199 279.097C466.737 279.022 467.225 278.758 467.582 278.351C467.939 277.944 468.135 277.422 468.14 276.881V174.727C468.14 174.481 468.099 174.237 468.017 174.005L467.824 173.595C467.627 173.262 467.344 172.986 467.007 172.793C466.671 172.6 466.289 172.498 465.904 172.496L408.382 172.479Z" fill="#426572"/>
<path id="Vector_54" d="M458.031 206.386H417.136V211.309H458.031V206.386Z" fill="#426572"/>
<path id="Vector_55" d="M458.031 192.755H417.136V197.678H458.031V192.755Z" fill="#426572"/>
<path id="Vector_56" d="M458.031 221.837H417.136V226.76H458.031V221.837Z" fill="#426572"/>
<path id="Vector_57" d="M333.912 231.995H397.227C398.81 231.995 398.814 229.534 397.227 229.534H333.912C332.328 229.534 332.324 231.995 333.912 231.995Z" fill="white"/>
<path id="Vector_58" d="M309.432 231.995H325.912C327.495 231.995 327.5 229.534 325.912 229.534H309.432C307.848 229.534 307.844 231.995 309.432 231.995Z" fill="white"/>
</g>
</g>
</g>
</g>
</g>
</g>
<g id="code" clip-path="url(#clip1_270_371)">
<g id="Asset 90">
<g id="Clip path group_2">
<mask id="mask1_270_371" style="mask-type:luminance" maskUnits="userSpaceOnUse" x="21" y="196" width="100" height="82">
<g id="clip0_3_49728">
<path id="Vector_44" d="M120.363 196.103H21.7434V277.233H120.363V196.103Z" fill="white"/>
</g>
</mask>
<g mask="url(#mask1_270_371)">
<g id="Asset 90_2">
<g id="Layer 2_2">
<g id="Layer 1_2">
<path id="Vector_45" d="M86.2242 204.994H25.661C23.8226 204.994 22.3323 206.645 22.3323 208.681V225.319C22.3323 227.356 23.8226 229.006 25.661 229.006H86.2242C88.0626 229.006 89.5529 227.356 89.5529 225.319V208.681C89.5529 206.645 88.0626 204.994 86.2242 204.994Z" fill="#BAD977"/>
<path id="Vector_2_3" d="M89.5529 220.023V227.568C89.5529 228.363 88.1074 229.007 86.3346 229.007H25.5545C23.7765 229.007 22.3362 228.363 22.3362 227.568V223.201C26.4337 224.404 31.0988 225.214 35.8836 225.718C41.6658 226.327 47.6254 226.504 53.56 226.53C60.6564 226.562 67.871 226.372 74.5507 225.305C80.672 224.331 86.3477 222.532 89.5529 220.023Z" fill="#7CA523"/>
<path id="Vector_3_2" d="M46.6359 205.055C40.3031 205.53 31.5076 205.071 26.0421 206.817C23.4519 207.642 22.8106 209.246 22.394 210.573L22.4006 206.86C22.4006 206.384 22.4374 205.866 23.1247 205.502C23.975 205.054 25.4691 205.019 26.7846 205.02C33.2435 205.022 40.3044 204.707 46.6359 205.055Z" fill="#4ED9FF"/>
<path id="Vector_4_2" d="M86.1612 205.023H25.598C23.7596 205.023 22.2693 206.674 22.2693 208.711V225.349C22.2693 227.385 23.7596 229.036 25.598 229.036H86.1612C87.9996 229.036 89.49 227.385 89.49 225.349V208.711C89.49 206.674 87.9996 205.023 86.1612 205.023Z" stroke="#426572" stroke-width="6.07333" stroke-miterlimit="10"/>
<path id="Vector_5_2" d="M116.581 242.261H47.3534C45.515 242.261 44.0247 243.912 44.0247 245.949V262.586C44.0247 264.623 45.515 266.274 47.3534 266.274H116.581C118.419 266.274 119.909 264.623 119.909 262.586V245.949C119.909 243.912 118.419 242.261 116.581 242.261Z" fill="#BAD977"/>
<path id="Vector_6_2" d="M119.909 257.29V264.835C119.909 265.63 118.283 266.274 116.276 266.274H47.6582C45.6516 266.274 44.0247 265.63 44.0247 264.835V260.468C48.6504 261.671 53.9175 262.481 59.3186 262.985C65.8393 263.594 72.5729 263.771 79.2737 263.797C87.2821 263.83 95.4297 263.639 102.97 262.572C109.884 261.598 116.292 259.799 119.909 257.29Z" fill="#7CA523"/>
<path id="Vector_7_2" d="M71.4597 242.323C64.3108 242.797 54.376 242.339 48.2114 244.084C45.2848 244.911 44.5633 246.515 44.0916 247.842L44.1008 244.128C44.1008 243.652 44.1415 243.134 44.9181 242.77C45.8788 242.321 47.5648 242.286 49.0498 242.288C56.3406 242.289 64.3135 241.975 71.4597 242.323Z" fill="#4ED9FF"/>
<path id="Vector_8_2" d="M116.508 242.291H47.2811C45.4428 242.291 43.9524 243.941 43.9524 245.978V262.616C43.9524 264.652 45.4428 266.303 47.2811 266.303H116.508C118.347 266.303 119.837 264.652 119.837 262.616V245.978C119.837 243.941 118.347 242.291 116.508 242.291Z" stroke="#426572" stroke-width="6.07333" stroke-miterlimit="10"/>
<path id="Vector_9_2" d="M107.187 196.817H35.425C34.274 196.817 33.3408 197.851 33.3408 199.126V273.901C33.3408 275.176 34.274 276.21 35.425 276.21H107.187C108.338 276.21 109.272 275.176 109.272 273.901V199.126C109.272 197.851 108.338 196.817 107.187 196.817Z" fill="white"/>
<path id="Vector_10_2" d="M109.6 200.017V211.711H33.6707V200.017C33.6707 198.072 34.6037 196.493 35.7549 196.493H107.516C108.667 196.493 109.6 198.072 109.6 200.017Z" fill="#DCEAEF"/>
<path id="Vector_11_2" d="M107.097 196.685H35.3342C34.1831 196.685 33.25 197.719 33.25 198.994V274.342C33.25 275.617 34.1831 276.651 35.3342 276.651H107.097C108.248 276.651 109.181 275.617 109.181 274.342V198.994C109.181 197.719 108.248 196.685 107.097 196.685Z" stroke="#426572" stroke-width="3.57415" stroke-miterlimit="10"/>
<path id="Vector_12_2" d="M40.4041 206.616C41.275 206.616 41.9811 205.834 41.9811 204.869C41.9811 203.904 41.275 203.122 40.4041 203.122C39.5332 203.122 38.8271 203.904 38.8271 204.869C38.8271 205.834 39.5332 206.616 40.4041 206.616Z" fill="#9126BF"/>
<path id="Vector_13_2" d="M45.5294 206.616C46.4002 206.616 47.1063 205.834 47.1063 204.869C47.1063 203.904 46.4002 203.122 45.5294 203.122C44.6585 203.122 43.9524 203.904 43.9524 204.869C43.9524 205.834 44.6585 206.616 45.5294 206.616Z" fill="#F24E1E"/>
<path id="Vector_14_2" d="M50.6546 206.616C51.5255 206.616 52.2316 205.834 52.2316 204.869C52.2316 203.904 51.5255 203.122 50.6546 203.122C49.7837 203.122 49.0776 203.904 49.0776 204.869C49.0776 205.834 49.7837 206.616 50.6546 206.616Z" fill="#BAD977"/>
<path id="Vector_15_2" d="M47.3467 228.839C47.3467 227.174 47.8618 226.239 48.8501 226.239C49.8383 226.239 50.3534 227.174 50.3534 228.839C50.3534 230.505 49.8383 231.447 48.8501 231.447C47.8618 231.447 47.3467 230.512 47.3467 228.839ZM49.7279 228.839C49.7279 227.371 49.4059 226.772 48.8514 226.772C48.2968 226.772 47.9748 227.371 47.9748 228.839C47.9748 230.308 48.3047 230.914 48.8514 230.914C49.398 230.914 49.7279 230.313 49.7279 228.839ZM48.8501 228.365C48.9359 228.364 49.02 228.391 49.0917 228.444C49.1635 228.496 49.2195 228.571 49.2527 228.658C49.2858 228.746 49.2948 228.843 49.2782 228.936C49.2616 229.029 49.2204 229.115 49.1597 229.182C49.0989 229.25 49.0215 229.295 48.9373 229.314C48.8531 229.332 48.7659 229.322 48.6867 229.285C48.6076 229.248 48.54 229.186 48.4929 229.107C48.4457 229.028 48.4209 228.934 48.4216 228.839C48.4212 228.777 48.4322 228.715 48.4536 228.657C48.475 228.599 48.5065 228.547 48.5464 228.503C48.5862 228.459 48.6336 228.424 48.6857 228.4C48.7378 228.376 48.7937 228.364 48.8501 228.365Z" fill="#426372"/>
<path id="Vector_16_2" d="M52.7833 227.065L51.6952 227.793L51.4048 227.326L52.8503 226.324H53.3839V230.816H54.313V231.358H51.6702V230.816H52.7846V227.065H52.7833Z" fill="#426372"/>
<path id="Vector_17_2" d="M61.8391 227.006L62.1295 227.51L59.8219 229.073L62.1295 230.643L61.8128 231.133L59.2988 229.395V228.746L61.8391 227.006Z" fill="#426372"/>
<path id="Vector_18_2" d="M65.4899 231.359V229.002H63.8406V231.361H63.2151V226.328H63.8406V228.432H65.4885V226.328H66.1141V231.361L65.4899 231.359Z" fill="#426372"/>
<path id="Vector_19_2" d="M68.9211 226.912V231.361H68.2956V226.912H66.8921V226.33H70.347L70.2812 226.912H68.9211Z" fill="#426372"/>
<path id="Vector_20_2" d="M73.7662 231.359L73.6348 228.781C73.602 228.072 73.602 227.256 73.6085 227.094H73.5875L72.8634 230.458H72.2629L71.5112 227.091H71.4849C71.4849 227.259 71.498 228.129 71.4718 228.778L71.3601 231.356H70.7805L71.0433 226.324H71.8739L72.573 229.684H72.5993L73.2655 226.324H74.1027L74.3655 231.356L73.7662 231.359Z" fill="#426372"/>
<path id="Vector_21_2" d="M75.4116 231.359V226.328H76.0371V230.749H78.1003L78.0281 231.355L75.4116 231.359Z" fill="#426372"/>
<path id="Vector_22_2" d="M81.8982 228.745V229.394L79.3856 231.132L79.0688 230.642L81.3765 229.072L79.0688 227.509L79.3593 227.005L81.8982 228.745Z" fill="#426372"/>
<path id="Vector_23_2" d="M47.3467 237.6C47.3467 235.934 47.8618 235 48.8501 235C49.8383 235 50.3534 235.934 50.3534 237.6C50.3534 239.265 49.8383 240.211 48.8501 240.211C47.8618 240.211 47.3467 239.271 47.3467 237.6ZM49.7279 237.6C49.7279 236.131 49.4059 235.533 48.8514 235.533C48.2968 235.533 47.9748 236.131 47.9748 237.6C47.9748 239.069 48.3047 239.674 48.8514 239.674C49.398 239.674 49.7279 239.074 49.7279 237.6ZM48.8501 237.125C48.9359 237.124 49.02 237.152 49.0917 237.204C49.1635 237.256 49.2195 237.331 49.2527 237.419C49.2858 237.507 49.2948 237.603 49.2782 237.697C49.2616 237.79 49.2204 237.876 49.1597 237.943C49.0989 238.01 49.0215 238.056 48.9373 238.074C48.8531 238.092 48.7659 238.083 48.6867 238.046C48.6076 238.009 48.54 237.947 48.4929 237.867C48.4457 237.788 48.4209 237.695 48.4216 237.6C48.4211 237.537 48.4319 237.475 48.4532 237.417C48.4745 237.359 48.506 237.307 48.5458 237.262C48.5858 237.218 48.6332 237.183 48.6854 237.159C48.7376 237.135 48.7935 237.123 48.8501 237.124V237.125Z" fill="#426372"/>
<path id="Vector_24_2" d="M52.0856 239.557H54.1488L54.0765 240.119H51.3734V239.586C52.9424 237.862 53.4247 237.168 53.4247 236.408C53.4312 236.294 53.4155 236.18 53.379 236.074C53.3425 235.967 53.2857 235.87 53.2126 235.79C53.1396 235.71 53.0519 235.648 52.9555 235.608C52.859 235.569 52.756 235.552 52.6533 235.561C52.2775 235.561 52.0199 235.715 51.7426 236.101L51.3208 235.772C51.6769 235.283 52.1251 234.997 52.6862 234.997C53.5167 234.997 54.0516 235.579 54.0516 236.386C54.0503 237.264 53.4234 238.14 52.0856 239.557Z" fill="#426372"/>
<path id="Vector_25_2" d="M61.8392 235.766L62.1296 236.27L59.822 237.833L62.1296 239.403L61.8129 239.893L59.3003 238.155V237.504L61.8392 235.766Z" fill="#426372"/>
<path id="Vector_26_2" d="M64.5463 240.12H63.2939V235.088H64.453C65.2638 235.088 66.076 235.379 66.076 236.358C66.0808 236.612 66.0042 236.859 65.8598 237.056C65.7154 237.253 65.5125 237.386 65.2875 237.433V237.462C65.7422 237.557 66.277 237.849 66.277 238.682C66.2665 239.784 65.3966 240.12 64.5463 240.12ZM64.5595 235.635H63.9195V237.212H64.612C65.1377 237.212 65.4307 236.97 65.4307 236.401C65.4307 235.831 65.1009 235.635 64.5595 235.635ZM64.658 237.768H63.9195V239.558H64.6317C65.0746 239.558 65.6081 239.413 65.6081 238.696C65.6081 237.98 65.1797 237.768 64.658 237.768Z" fill="#426372"/>
<path id="Vector_27_2" d="M68.6188 240.212C67.5044 240.212 66.9314 239.183 66.9314 237.619C66.9314 236.086 67.5044 234.999 68.6188 234.999C69.7331 234.999 70.3061 236.044 70.3061 237.606C70.3074 239.14 69.7318 240.212 68.6188 240.212ZM68.6188 235.574C67.8802 235.574 67.5832 236.29 67.5832 237.612C67.5832 238.934 67.8999 239.635 68.6188 239.635C69.3573 239.635 69.653 238.934 69.653 237.597C69.653 236.261 69.3573 235.568 68.6188 235.568V235.574Z" fill="#426372"/>
<path id="Vector_28_2" d="M72.1827 240.12H71.1208V235.088H72.1104C73.1854 235.088 74.2524 235.489 74.2524 237.578C74.2524 239.667 73.1459 240.12 72.1827 240.12ZM72.2497 235.644H71.749V239.574H72.2563C72.9028 239.574 73.5875 239.209 73.5875 237.581C73.5875 235.869 72.8634 235.642 72.2497 235.642V235.644Z" fill="#426372"/>
<path id="Vector_29_2" d="M76.8425 238.184V240.12H76.2091V238.191L74.6794 235.086H75.372L76.5337 237.546H76.5547L77.7217 235.086H78.3787L76.8425 238.184Z" fill="#426372"/>
<path id="Vector_30_2" d="M81.8982 237.504V238.153L79.3856 239.891L79.0688 239.401L81.3765 237.831L79.0688 236.268L79.3593 235.764L81.8982 237.504Z" fill="#426372"/>
<path id="Vector_31_2" d="M47.3467 246.359C47.3467 244.694 47.8618 243.759 48.8501 243.759C49.8383 243.759 50.3534 244.694 50.3534 246.359C50.3534 248.025 49.8383 248.967 48.8501 248.967C47.8618 248.967 47.3467 248.032 47.3467 246.359ZM49.7279 246.359C49.7279 244.891 49.4059 244.292 48.8514 244.292C48.2968 244.292 47.9748 244.891 47.9748 246.359C47.9748 247.828 48.3047 248.434 48.8514 248.434C49.398 248.434 49.7279 247.834 49.7279 246.359ZM48.8501 245.889C48.9359 245.888 49.02 245.916 49.0917 245.968C49.1635 246.02 49.2195 246.095 49.2527 246.183C49.2858 246.271 49.2948 246.367 49.2782 246.46C49.2616 246.554 49.2204 246.64 49.1597 246.707C49.0989 246.774 49.0215 246.82 48.9373 246.838C48.8531 246.856 48.7659 246.847 48.6867 246.81C48.6076 246.773 48.54 246.711 48.4929 246.632C48.4457 246.552 48.4209 246.459 48.4216 246.364C48.4212 246.301 48.4322 246.239 48.4536 246.182C48.475 246.124 48.5065 246.071 48.5464 246.027C48.5862 245.983 48.6336 245.948 48.6857 245.925C48.7378 245.901 48.7937 245.889 48.8501 245.889Z" fill="#426372"/>
<path id="Vector_32_2" d="M52.6259 248.966C52.3592 248.975 52.0942 248.919 51.8493 248.802C51.6045 248.685 51.386 248.509 51.2092 248.288L51.6035 247.923C51.7278 248.081 51.8818 248.207 52.0547 248.293C52.2277 248.379 52.4153 248.422 52.6048 248.419C53.2172 248.419 53.5878 248.039 53.5878 247.425C53.5878 246.723 53.1936 246.49 52.6679 246.49H52.3184L52.3906 245.972H52.6259C53.0608 245.972 53.4695 245.703 53.4695 245.117C53.4695 244.583 53.1003 244.291 52.6324 244.291C52.2382 244.291 51.9754 244.445 51.6771 244.751L51.3472 244.349C51.6976 243.967 52.1699 243.754 52.6613 243.756C53.5313 243.756 54.0727 244.339 54.0727 245.02C54.0731 245.295 53.9872 245.561 53.8297 245.774C53.6722 245.986 53.4529 246.132 53.2093 246.184V246.214C53.4889 246.228 53.7517 246.365 53.9408 246.593C54.1298 246.822 54.2296 247.124 54.2186 247.434C54.2212 248.301 53.5812 248.966 52.6259 248.966Z" fill="#426372"/>
<path id="Vector_33_2" d="M61.8391 244.525L62.1295 245.029L59.8219 246.592L62.1295 248.162L61.8115 248.655L59.2988 246.908V246.259L61.8391 244.525Z" fill="#426372"/>
<path id="Vector_34_2" d="M65.4899 248.879V246.521H63.8406V248.879H63.2151V243.851H63.8406V245.955H65.4885V243.851H66.1141V248.884H65.4885L65.4899 248.879Z" fill="#426372"/>
<path id="Vector_35_2" d="M68.001 244.4V246.043H69.6752V246.598H68.001V248.329H70.0523V248.876H67.3794V243.851H70.0077L69.9354 244.406L68.001 244.4Z" fill="#426372"/>
<path id="Vector_36_2" d="M73.4298 247.616H71.6807L71.3311 248.879H70.7056L72.1761 243.851H72.9646L74.4403 248.879H73.7833L73.4298 247.616ZM71.8344 247.054H73.28L72.5743 244.476H72.548L71.8344 247.054Z" fill="#426372"/>
<path id="Vector_37_2" d="M76.1368 248.879H75.075V243.851H76.0645C77.1395 243.851 78.2065 244.253 78.2065 246.342C78.2065 248.431 77.0987 248.879 76.1368 248.879ZM76.2025 244.401H75.7018V248.332H76.2091C76.8556 248.332 77.5403 247.966 77.5403 246.339C77.5416 244.628 76.8228 244.4 76.2025 244.4V244.401Z" fill="#426372"/>
<path id="Vector_38_2" d="M79.8665 244.4V246.043H81.5368V246.598H79.8665V248.329H81.9179V248.876H79.241V243.851H81.8692L81.797 244.406L79.8665 244.4Z" fill="#426372"/>
<path id="Vector_39_2" d="M84.9285 246.659L86.2597 248.879H85.5146L84.2964 246.746H83.7168V248.879H83.0913V243.851H84.2845C85.4186 243.851 86.0113 244.331 86.0113 245.275C86.0153 246.023 85.5409 246.483 84.9285 246.659ZM84.3476 244.387H83.7221V246.212H84.3555C84.9889 246.212 85.3503 245.95 85.3503 245.27C85.3477 244.641 85.0257 244.387 84.3463 244.387H84.3476Z" fill="#426372"/>
<path id="Vector_40_2" d="M89.8054 246.264V246.908L87.2928 248.655L86.9761 248.164L89.2837 246.595L86.9761 245.031L87.2665 244.527L89.8054 246.264Z" fill="#426372"/>
<path id="Vector_41_2" d="M47.3467 255.118C47.3467 253.453 47.8618 252.518 48.8501 252.518C49.8383 252.518 50.3521 253.459 50.3521 255.118C50.3521 256.778 49.837 257.726 48.8487 257.726C47.8605 257.726 47.3467 256.791 47.3467 255.118ZM49.7279 255.118C49.7279 253.65 49.4059 253.051 48.8514 253.051C48.2968 253.051 47.9748 253.65 47.9748 255.118C47.9748 256.587 48.3047 257.193 48.8514 257.193C49.398 257.193 49.7279 256.593 49.7279 255.118ZM48.8501 254.644C48.9359 254.643 49.0198 254.671 49.0913 254.724C49.1629 254.776 49.2187 254.851 49.2518 254.939C49.2848 255.026 49.2934 255.123 49.2768 255.216C49.2601 255.309 49.2187 255.395 49.158 255.462C49.0971 255.529 49.0197 255.575 48.9356 255.593C48.8514 255.611 48.7642 255.601 48.6851 255.564C48.606 255.528 48.5386 255.465 48.4914 255.386C48.4444 255.307 48.4195 255.214 48.4203 255.118C48.4199 255.056 48.4308 254.994 48.4524 254.936C48.4738 254.878 48.5055 254.826 48.5454 254.781C48.5855 254.737 48.633 254.702 48.6853 254.679C48.7376 254.655 48.7935 254.643 48.8501 254.644Z" fill="#426372"/>
<path id="Vector_42_2" d="M53.7269 256.433V257.639H53.1408V256.433H51.2812V255.959L52.6125 252.517L53.1197 252.752L51.9186 255.901H53.1381L53.1986 254.59H53.7242V255.901H54.2972V256.435L53.7269 256.433Z" fill="#426372"/>
<path id="Vector_43_2" d="M61.8392 253.284L62.1296 253.788L59.822 255.351L62.1296 256.921L61.8129 257.411L59.3003 255.673V255.024L61.8392 253.284Z" fill="#426372"/>
<path id="Vector_44_2" d="M63.5055 258.398L63.0166 258.157L65.8315 251.722L66.3138 251.978L63.5055 258.398Z" fill="#426372"/>
<path id="Vector_45_2" d="M69.4467 257.639V255.28H67.7935V257.639H67.168V252.606H67.7935V254.71H69.4467V252.606H70.0722V257.639H69.4467Z" fill="#426372"/>
<path id="Vector_46" d="M71.9593 253.168V254.811H73.6335V255.366H71.9593V257.097H74.0106V257.644H71.3337V252.606H73.962L73.8897 253.161L71.9593 253.168Z" fill="#426372"/>
<path id="Vector_47" d="M77.3828 256.37H75.635L75.2854 257.634H74.6599L76.1304 252.601H76.9189L78.3894 257.634H77.7324L77.3828 256.37ZM75.7874 255.808H77.233L76.5273 253.23H76.4997L75.7874 255.808Z" fill="#426372"/>
<path id="Vector_48" d="M80.0911 257.639H79.0293V252.606H80.0188C81.0938 252.606 82.1609 253.008 82.1609 255.097C82.1609 257.186 81.0544 257.639 80.0911 257.639ZM80.1568 253.168H79.6561V257.098H80.1634C80.8099 257.098 81.4946 256.733 81.4946 255.106C81.4946 253.388 80.7758 253.168 80.1568 253.168Z" fill="#426372"/>
<path id="Vector_49" d="M83.8194 253.168V254.811H85.4936V255.366H83.8194V257.097H85.8734V257.644H83.1938V252.606H85.8221L85.742 253.168H83.8194Z" fill="#426372"/>
<path id="Vector_50" d="M88.8815 255.417L90.2101 257.639H89.465L88.252 255.506H87.6712V257.639H87.0457V252.606H88.2389C89.373 252.606 89.9657 253.086 89.9657 254.03C89.9696 254.782 89.4952 255.242 88.8815 255.417ZM88.302 253.146H87.6764V254.973H88.3099C88.9433 254.973 89.3047 254.711 89.3047 254.031C89.3033 253.402 88.9801 253.146 88.3007 253.146H88.302Z" fill="#426372"/>
<path id="Vector_51_2" d="M93.7581 255.024V255.673L91.2455 257.411L90.9287 256.921L93.2324 255.351L90.9248 253.788L91.2152 253.284L93.7581 255.024Z" fill="#426372"/>
</g>
</g>
</g>
</g>
</g>
</g>
</g>
</g>
<defs>
<linearGradient id="paint0_linear_270_371" x1="0.541626" y1="152.282" x2="514.708" y2="152.282" gradientUnits="userSpaceOnUse">
<stop stop-color="#900EC8" stop-opacity="0.61"/>
<stop offset="0.9997" stop-color="#CC6AD9"/>
<stop offset="0.9998" stop-color="#D722EF"/>
<stop offset="0.9999" stop-color="#CC6AD9" stop-opacity="0.4"/>
</linearGradient>
<clipPath id="clip0_270_371">
<rect width="528" height="304.82" fill="white"/>
</clipPath>
<clipPath id="clip1_270_371">
<rect width="98.6916" height="81.2308" fill="white" transform="translate(21.7434 196.103)"/>
</clipPath>
</defs>
</svg>
