<svg width="451" height="216" viewBox="0 0 451 216" fill="none" xmlns="http://www.w3.org/2000/svg">
<g id="image-offer">
<path id="SHAPE313" opacity="0.28" d="M444.364 214.497L6.40388 215.645C3.16261 215.653 0.562293 212.924 0.553168 209.504C0.544043 206.084 3.12976 203.341 6.37103 203.333L444.396 202.184C447.637 202.176 450.238 204.905 450.247 208.325C450.191 211.746 447.605 214.488 444.364 214.497Z" fill="#848484"/>
<g id="SHAPE 45">
<path id="SHAPE 41" d="M425.202 151.343C425.134 125.898 406.797 105.015 383.13 102.683L383.114 96.9373L368.917 96.9745L369.211 206.896L383.407 206.859L383.39 200.224C406.98 197.768 425.27 176.789 425.202 151.343ZM383.283 184.423L383.107 118.552C398.282 120.838 410.247 134.692 410.292 151.451C410.337 168.141 398.446 182.058 383.283 184.423Z" fill="#BAD977"/>
<path id="22" opacity="0.29" d="M383.065 102.683L383.049 96.9378L368.853 96.975L369.146 206.896L383.343 206.859L383.325 200.224C406.98 197.768 425.205 176.858 425.137 151.344C425.134 125.898 406.732 105.016 383.065 102.683ZM383.311 195.162L383.327 200.84L370.037 200.875L369.773 101.966L383.063 101.931L383.078 107.745C403.893 109.811 420.733 128.509 420.794 151.355C420.919 174.201 404.18 192.987 383.311 195.162Z" fill="#BAD977"/>
<path id="SHAPE 48" d="M425.202 151.343C425.134 125.898 406.797 105.015 383.13 102.683L383.114 96.9373L368.917 96.9745L369.211 206.896L383.407 206.859L383.39 200.224C406.98 197.768 425.27 176.789 425.202 151.343ZM383.283 184.423L383.107 118.552C398.282 120.838 410.247 134.692 410.292 151.451C410.337 168.141 398.446 182.058 383.283 184.423Z" fill="#BAD977" stroke="#444E59" stroke-width="2.01701" stroke-miterlimit="10" stroke-linecap="round" stroke-linejoin="round"/>
<g id="SHAPE 49">
<g id="SHAPE 67">
<g id="SHAPE 68">
<path d="M374.821 195.869L369.117 195.884Z" fill="#BAD977"/>
<path d="M374.821 195.869L369.117 195.884" stroke="#444E59" stroke-width="1.51276" stroke-miterlimit="10" stroke-linecap="round" stroke-linejoin="round"/>
</g>
</g>
<g id="SHAPE 65">
<g id="SHAPE 66">
<path d="M374.792 184.924L369.087 184.939Z" fill="#BAD977"/>
<path d="M374.792 184.924L369.087 184.939" stroke="#444E59" stroke-width="1.51276" stroke-miterlimit="10" stroke-linecap="round" stroke-linejoin="round"/>
</g>
</g>
<g id="SHAPE 63">
<g id="SHAPE 64">
<path d="M374.763 173.912L369.058 173.927Z" fill="#BAD977"/>
<path d="M374.763 173.912L369.058 173.927" stroke="#444E59" stroke-width="1.51276" stroke-miterlimit="10" stroke-linecap="round" stroke-linejoin="round"/>
</g>
</g>
<g id="SHAPE 61">
<g id="SHAPE 62">
<path d="M374.733 162.899L369.029 162.914Z" fill="#BAD977"/>
<path d="M374.733 162.899L369.029 162.914" stroke="#444E59" stroke-width="1.51276" stroke-miterlimit="10" stroke-linecap="round" stroke-linejoin="round"/>
</g>
</g>
<g id="SHAPE 59">
<g id="SHAPE 60">
<path d="M374.704 151.955L368.999 151.97Z" fill="#BAD977"/>
<path d="M374.704 151.955L368.999 151.97" stroke="#444E59" stroke-width="1.51276" stroke-miterlimit="10" stroke-linecap="round" stroke-linejoin="round"/>
</g>
</g>
<g id="SHAPE 56">
<g id="SHAPE 57">
<path d="M374.675 140.942L368.97 140.957Z" fill="#BAD977"/>
<path d="M374.675 140.942L368.97 140.957" stroke="#444E59" stroke-width="1.51276" stroke-miterlimit="10" stroke-linecap="round" stroke-linejoin="round"/>
</g>
</g>
<g id="SHAPE 54">
<g id="SHAPE 55">
<path d="M374.645 129.929L368.941 129.944Z" fill="#BAD977"/>
<path d="M374.645 129.929L368.941 129.944" stroke="#444E59" stroke-width="1.51276" stroke-miterlimit="10" stroke-linecap="round" stroke-linejoin="round"/>
</g>
</g>
<g id="SHAPE 52">
<g id="SHAPE 53">
<path d="M374.616 118.917L368.911 118.932Z" fill="#BAD977"/>
<path d="M374.616 118.917L368.911 118.932" stroke="#444E59" stroke-width="1.51276" stroke-miterlimit="10" stroke-linecap="round" stroke-linejoin="round"/>
</g>
</g>
<g id="SHAPE 50">
<g id="SHAPE 51">
<path d="M374.587 107.973L368.882 107.988Z" fill="#BAD977"/>
<path d="M374.587 107.973L368.882 107.988" stroke="#444E59" stroke-width="1.51276" stroke-miterlimit="10" stroke-linecap="round" stroke-linejoin="round"/>
</g>
</g>
</g>
</g>
<g id="12">
<path id="07" d="M358.721 41.3905L337.264 41.4468L337.705 206.705L359.162 206.649L358.721 41.3905Z" fill="#CC6AD9"/>
<path id="08" d="M358.721 41.3905L337.264 41.4468L337.705 206.705L359.162 206.649L358.721 41.3905Z" fill="#CC6AD9"/>
<path id="09" opacity="0.29" d="M358.721 41.3904L349.386 41.4149L349.827 206.673L359.162 206.649L358.721 41.3904Z" fill="#CC6AD9"/>
<path id="SHAPE21" d="M358.721 41.3905L337.264 41.4468L337.705 206.705L359.162 206.649L358.721 41.3905Z" fill="#CC6AD9" stroke="#444E59" stroke-width="2.01701" stroke-miterlimit="10" stroke-linecap="round" stroke-linejoin="round"/>
<g id="03">
<g id="66">
<g id="69">
<path d="M345.115 189.995L337.66 190.015Z" fill="#CC6AD9"/>
<path d="M345.115 189.995L337.66 190.015" stroke="#444E59" stroke-width="1.51276" stroke-miterlimit="10" stroke-linecap="round" stroke-linejoin="round"/>
</g>
<g id="68">
<path d="M342.284 197.869L337.681 197.881Z" fill="#CC6AD9"/>
<path d="M342.284 197.869L337.681 197.881" stroke="#444E59" stroke-width="1.51276" stroke-miterlimit="10" stroke-linecap="round" stroke-linejoin="round"/>
</g>
</g>
<g id="62">
<g id="65">
<path d="M345.073 174.263L337.618 174.283Z" fill="#CC6AD9"/>
<path d="M345.073 174.263L337.618 174.283" stroke="#444E59" stroke-width="1.51276" stroke-miterlimit="10" stroke-linecap="round" stroke-linejoin="round"/>
</g>
<g id="64">
<path d="M342.242 182.137L337.639 182.149Z" fill="#CC6AD9"/>
<path d="M342.242 182.137L337.639 182.149" stroke="#444E59" stroke-width="1.51276" stroke-miterlimit="10" stroke-linecap="round" stroke-linejoin="round"/>
</g>
</g>
<g id="58">
<g id="61">
<path d="M345.031 158.531L337.576 158.55Z" fill="#CC6AD9"/>
<path d="M345.031 158.531L337.576 158.55" stroke="#444E59" stroke-width="1.51276" stroke-miterlimit="10" stroke-linecap="round" stroke-linejoin="round"/>
</g>
<g id="60">
<path d="M342.2 166.404L337.598 166.417Z" fill="#CC6AD9"/>
<path d="M342.2 166.404L337.598 166.417" stroke="#444E59" stroke-width="1.51276" stroke-miterlimit="10" stroke-linecap="round" stroke-linejoin="round"/>
</g>
</g>
<g id="54">
<g id="57">
<path d="M344.989 142.73L337.534 142.75Z" fill="#CC6AD9"/>
<path d="M344.989 142.73L337.534 142.75" stroke="#444E59" stroke-width="1.51276" stroke-miterlimit="10" stroke-linecap="round" stroke-linejoin="round"/>
</g>
<g id="56">
<path d="M342.158 150.604L337.555 150.616Z" fill="#CC6AD9"/>
<path d="M342.158 150.604L337.555 150.616" stroke="#444E59" stroke-width="1.51276" stroke-miterlimit="10" stroke-linecap="round" stroke-linejoin="round"/>
</g>
</g>
<g id="49">
<g id="53">
<path d="M344.947 126.998L337.492 127.017Z" fill="#CC6AD9"/>
<path d="M344.947 126.998L337.492 127.017" stroke="#444E59" stroke-width="1.51276" stroke-miterlimit="10" stroke-linecap="round" stroke-linejoin="round"/>
</g>
<g id="51">
<path d="M342.116 134.871L337.513 134.883Z" fill="#CC6AD9"/>
<path d="M342.116 134.871L337.513 134.883" stroke="#444E59" stroke-width="1.51276" stroke-miterlimit="10" stroke-linecap="round" stroke-linejoin="round"/>
</g>
</g>
<g id="45">
<g id="48">
<path d="M344.905 111.265L337.45 111.285Z" fill="#CC6AD9"/>
<path d="M344.905 111.265L337.45 111.285" stroke="#444E59" stroke-width="1.51276" stroke-miterlimit="10" stroke-linecap="round" stroke-linejoin="round"/>
</g>
<g id="47">
<path d="M342.074 119.139L337.471 119.151Z" fill="#CC6AD9"/>
<path d="M342.074 119.139L337.471 119.151" stroke="#444E59" stroke-width="1.51276" stroke-miterlimit="10" stroke-linecap="round" stroke-linejoin="round"/>
</g>
</g>
<g id="23">
<g id="44">
<path d="M344.863 95.5329L337.408 95.5525Z" fill="#CC6AD9"/>
<path d="M344.863 95.5329L337.408 95.5525" stroke="#444E59" stroke-width="1.51276" stroke-miterlimit="10" stroke-linecap="round" stroke-linejoin="round"/>
</g>
<g id="43">
<path d="M342.032 103.407L337.429 103.419Z" fill="#CC6AD9"/>
<path d="M342.032 103.407L337.429 103.419" stroke="#444E59" stroke-width="1.51276" stroke-miterlimit="10" stroke-linecap="round" stroke-linejoin="round"/>
</g>
</g>
<g id="15">
<g id="19">
<path d="M344.821 79.8005L337.366 79.8201Z" fill="#CC6AD9"/>
<path d="M344.821 79.8005L337.366 79.8201" stroke="#444E59" stroke-width="1.51276" stroke-miterlimit="10" stroke-linecap="round" stroke-linejoin="round"/>
</g>
<g id="18">
<path d="M341.99 87.6741L337.387 87.6862Z" fill="#CC6AD9"/>
<path d="M341.99 87.6741L337.387 87.6862" stroke="#444E59" stroke-width="1.51276" stroke-miterlimit="10" stroke-linecap="round" stroke-linejoin="round"/>
</g>
</g>
<g id="SHAPE18">
<g id="10">
<path d="M344.779 64.0681L337.324 64.0876Z" fill="#CC6AD9"/>
<path d="M344.779 64.0681L337.324 64.0876" stroke="#444E59" stroke-width="1.51276" stroke-miterlimit="10" stroke-linecap="round" stroke-linejoin="round"/>
</g>
<g id="SHAPE41">
<path d="M341.948 71.9418L337.345 71.9539Z" fill="#CC6AD9"/>
<path d="M341.948 71.9418L337.345 71.9539" stroke="#444E59" stroke-width="1.51276" stroke-miterlimit="10" stroke-linecap="round" stroke-linejoin="round"/>
</g>
</g>
<g id="SHAPE 36">
<g id="SHAPE13">
<path d="M344.737 48.3358L337.282 48.3553Z" fill="#CC6AD9"/>
<path d="M344.737 48.3358L337.282 48.3553" stroke="#444E59" stroke-width="1.51276" stroke-miterlimit="10" stroke-linecap="round" stroke-linejoin="round"/>
</g>
<g id="SHAPE12">
<path d="M341.906 56.2094L337.303 56.2214Z" fill="#CC6AD9"/>
<path d="M341.906 56.2094L337.303 56.2214" stroke="#444E59" stroke-width="1.51276" stroke-miterlimit="10" stroke-linecap="round" stroke-linejoin="round"/>
</g>
</g>
</g>
</g>
<g id="SHAPE">
<path id="SHAPE 93" d="M306.06 81.4752L297.697 81.4971L297.76 104.822L306.122 104.8L306.06 81.4752Z" fill="#848484"/>
<path id="37" opacity="0.25" d="M300.809 81.4889L297.697 81.4971L297.76 104.822L300.871 104.814L300.809 81.4889Z" fill="#848484"/>
<path id="SHAPE 40" d="M306.06 81.4752L297.697 81.4971L297.76 104.822L306.122 104.8L306.06 81.4752Z" stroke="#444E59" stroke-width="2.01701" stroke-miterlimit="10" stroke-linecap="round" stroke-linejoin="round"/>
<path id="SHAPE 95" d="M303.853 104.874L300.029 104.885L300.059 116.171L303.883 116.161L303.853 104.874Z" fill="white"/>
<path id="SHAPE 42" d="M303.853 104.874L300.029 104.885L300.059 116.171L303.883 116.161L303.853 104.874Z" stroke="#444E59" stroke-width="2.01701" stroke-miterlimit="10" stroke-linecap="round" stroke-linejoin="round"/>
<g id="SHAPE6">
<path id="SHAPE 98" d="M295.548 126.238L276.315 206.797L305.664 127.306L295.548 126.238Z" fill="white"/>
<path id="SHAPE 37" d="M295.548 126.238L276.315 206.797L305.664 127.306L295.548 126.238Z" stroke="#444E59" stroke-width="2.01701" stroke-miterlimit="10" stroke-linecap="round" stroke-linejoin="round"/>
<path id="SHAPE 97" d="M308.513 126.204L328.175 206.661L298.468 127.324L308.513 126.204Z" fill="white"/>
<path id="SHAPE 38" d="M308.513 126.204L328.175 206.661L298.468 127.324L308.513 126.204Z" stroke="#444E59" stroke-width="2.01701" stroke-miterlimit="10" stroke-linecap="round" stroke-linejoin="round"/>
</g>
<path id="SHAPE 91" d="M302.073 142.021C309.233 142.003 315.021 135.863 315.001 128.307C314.981 120.752 309.16 114.642 302 114.661C294.839 114.68 289.051 120.82 289.071 128.375C289.091 135.931 294.912 142.04 302.073 142.021Z" fill="#71A850"/>
<path id="41" opacity="0.4" d="M292.701 128.366C292.683 121.457 297.53 115.767 303.815 114.793C303.231 114.726 302.648 114.659 302 114.661C294.869 114.68 289.051 120.851 289.071 128.375C289.091 135.899 294.942 142.04 302.073 142.021C302.656 142.02 303.304 141.95 303.887 141.88C297.597 140.939 292.72 135.274 292.701 128.366Z" fill="#71A850"/>
<path id="SHAPE 39" d="M302.073 142.021C309.233 142.003 315.021 135.863 315.001 128.307C314.981 120.752 309.16 114.642 302 114.661C294.839 114.68 289.051 120.82 289.071 128.375C289.091 135.931 294.912 142.04 302.073 142.021Z" stroke="#444E59" stroke-width="2.01701" stroke-miterlimit="10" stroke-linecap="round" stroke-linejoin="round"/>
<path id="SHAPE 94" d="M302.048 132.992C304.483 132.986 306.451 130.899 306.444 128.329C306.437 125.76 304.458 123.683 302.024 123.69C299.589 123.696 297.621 125.783 297.628 128.353C297.635 130.922 299.614 132.999 302.048 132.992Z" fill="#444E59"/>
<path id="SHAPE 92" d="M302.048 132.992C304.483 132.986 306.451 130.899 306.444 128.329C306.437 125.76 304.458 123.683 302.024 123.69C299.589 123.696 297.621 125.783 297.628 128.353C297.635 130.922 299.614 132.999 302.048 132.992Z" stroke="#444E59" stroke-width="2.01701" stroke-miterlimit="10" stroke-linecap="round" stroke-linejoin="round"/>
</g>
<path id="SHAPE 75" d="M255.441 206.715L169.871 206.94C164.88 206.953 160.784 202.654 160.77 197.387L160.274 11.3349C160.26 6.06797 164.332 1.74796 169.324 1.73488L254.893 1.51059C259.885 1.4975 263.98 5.7961 263.994 11.063L264.491 197.115C264.505 202.382 260.432 206.702 255.441 206.715Z" fill="#848484"/>
<path id="SHAPE16" opacity="0.28" d="M254.893 1.51063L249.448 1.5249C254.44 1.51182 258.535 5.81041 258.549 11.0773L259.046 197.13C259.06 202.397 254.987 206.717 249.995 206.73L255.506 206.715C260.497 206.702 264.57 202.382 264.556 197.115L264.059 11.0629C263.98 5.72774 259.885 1.49755 254.893 1.51063Z" fill="#848484"/>
<path id="SHAPE 81" opacity="0.48" d="M166.151 197.373L165.654 11.3208C165.64 6.05386 169.713 1.73386 174.704 1.72078L169.324 1.73488C164.332 1.74796 160.26 6.06797 160.274 11.3349L160.77 197.387C160.784 202.654 164.88 206.953 169.871 206.94L175.252 206.926C170.26 206.939 166.165 202.64 166.151 197.373Z" fill="#848484"/>
<path id="SHAPE 3" d="M255.441 206.715L169.871 206.94C164.88 206.953 160.784 202.654 160.77 197.387L160.274 11.3349C160.26 6.06797 164.332 1.74796 169.324 1.73488L254.893 1.51059C259.885 1.4975 263.98 5.7961 263.994 11.063L264.491 197.115C264.505 202.382 260.432 206.702 255.441 206.715Z" stroke="#444E59" stroke-width="2.01701" stroke-miterlimit="10" stroke-linecap="round" stroke-linejoin="round"/>
<path id="SHAPE 77" d="M264.458 180.349L264.05 27.1291L160.329 27.401L160.738 180.621L264.458 180.349Z" fill="#E9FBFF"/>
<path id="SHAPE 5" d="M263.651 76.5246L255.547 76.5458C251.139 76.5574 247.564 72.8047 247.551 68.1533L247.496 47.2909C247.483 42.6395 251.039 38.8681 255.447 38.8565L263.55 38.8353L263.651 76.5246Z" fill="#C9C9C9"/>
<path id="Vector" d="M166.638 161.324L160.674 161.339L160.497 94.7847L166.461 94.769C170.933 94.7573 174.574 98.5783 174.587 103.298L174.718 152.752C174.666 157.472 171.111 161.312 166.638 161.324Z" fill="#C9C9C9"/>
<path id="SHAPE 6" d="M264.458 180.349L264.05 27.1291L160.329 27.401L160.738 180.621L264.458 180.349Z" stroke="#444E59" stroke-width="2.01701" stroke-miterlimit="10" stroke-linecap="round" stroke-linejoin="round"/>
<g id="SHAPE 4">
<path id="SHAPE 9" d="M226.407 15.2656L230.944 15.2537" stroke="#444E59" stroke-width="2.52126" stroke-miterlimit="10" stroke-linecap="round" stroke-linejoin="round"/>
<path id="SHAPE 7" d="M193.346 15.3524L219.276 15.2845" stroke="#444E59" stroke-width="2.52126" stroke-miterlimit="10" stroke-linecap="round" stroke-linejoin="round"/>
</g>
<g id="28">
<path id="SHAPE 8" opacity="0.29" d="M212.637 199.577C216.575 199.567 219.759 196.189 219.748 192.034C219.737 187.879 216.535 184.518 212.597 184.529C208.659 184.539 205.475 187.916 205.486 192.071C205.497 196.227 208.699 199.587 212.637 199.577Z" fill="#848484"/>
<path id="SHAPE 78" d="M212.632 197.799C215.639 197.791 218.071 195.212 218.062 192.039C218.054 188.866 215.609 186.3 212.602 186.308C209.594 186.316 207.163 188.894 207.172 192.068C207.18 195.241 209.625 197.807 212.632 197.799Z" fill="#444E59"/>
</g>
<g id="SHAPE4" opacity="0.3">
<g id="SHAPE 32" opacity="0.3">
<g id="SHAPE 58" opacity="0.3">
<path id="Vector_2" opacity="0.3" d="M188.876 162.223L178.504 162.251C175.651 162.258 173.311 159.802 173.303 156.792L173.274 145.848C173.266 142.838 175.593 140.37 178.445 140.362L188.817 140.335C191.67 140.327 194.01 142.784 194.018 145.793L194.047 156.738C194.055 159.747 191.728 162.216 188.876 162.223Z" stroke="#444E59" stroke-width="1.0085" stroke-linecap="round" stroke-linejoin="round" stroke-dasharray="2.06 2.06"/>
</g>
<g id="SHAPE 35" opacity="0.3">
<path id="Vector_2_2" opacity="0.3" d="M246.246 162.073L235.874 162.1C233.022 162.108 230.682 159.652 230.674 156.642L230.644 145.698C230.636 142.688 232.964 140.219 235.816 140.212L246.188 140.185C249.04 140.177 251.381 142.634 251.389 145.643L251.418 156.587C251.426 159.597 249.099 162.066 246.246 162.073Z" stroke="#444E59" stroke-width="1.0085" stroke-linecap="round" stroke-linejoin="round" stroke-dasharray="2.06 2.06"/>
</g>
<g id="SHAPE 34" opacity="0.3">
<path id="Vector_3" opacity="0.3" d="M217.723 162.148L207.351 162.175C204.499 162.183 202.158 159.726 202.15 156.717L202.121 145.772C202.113 142.763 204.44 140.294 207.292 140.287L217.665 140.26C220.517 140.252 222.857 142.708 222.865 145.718L222.894 156.662C222.902 159.672 220.575 162.141 217.723 162.148Z" stroke="#444E59" stroke-width="1.0085" stroke-linecap="round" stroke-linejoin="round" stroke-dasharray="2.06 2.06"/>
</g>
</g>
<g id="7" opacity="0.3">
<g id="SHAPE 31" opacity="0.3">
<path id="Vector_4" opacity="0.3" d="M188.788 129.391L178.416 129.418C175.564 129.425 173.223 126.969 173.215 123.959L173.186 113.015C173.178 110.005 175.505 107.537 178.358 107.529L188.73 107.502C191.582 107.495 193.922 109.951 193.93 112.961L193.96 123.905C193.968 126.915 191.64 129.383 188.788 129.391Z" stroke="#444E59" stroke-width="1.0085" stroke-linecap="round" stroke-linejoin="round" stroke-dasharray="2.06 2.06"/>
</g>
<g id="SHAPE 30" opacity="0.3">
<path id="Vector_5" opacity="0.3" d="M246.159 129.24L235.787 129.268C232.934 129.275 230.594 126.819 230.586 123.809L230.557 112.865C230.549 109.855 232.876 107.386 235.728 107.379L246.1 107.352C248.952 107.344 251.293 109.801 251.301 112.81L251.33 123.755C251.338 126.764 249.011 129.233 246.159 129.24Z" stroke="#444E59" stroke-width="1.0085" stroke-linecap="round" stroke-linejoin="round" stroke-dasharray="2.06 2.06"/>
</g>
<g id="9" opacity="0.3">
<path id="Vector_6" opacity="0.3" d="M217.635 129.315L207.263 129.342C204.411 129.35 202.071 126.893 202.063 123.884L202.033 112.94C202.025 109.93 204.353 107.461 207.205 107.454L217.577 107.427C220.429 107.419 222.769 109.876 222.778 112.885L222.807 123.829C222.815 126.839 220.488 129.308 217.635 129.315Z" stroke="#444E59" stroke-width="1.0085" stroke-linecap="round" stroke-linejoin="round" stroke-dasharray="2.06 2.06"/>
</g>
</g>
<g id="2" opacity="0.3">
<g id="6" opacity="0.3">
<path id="Vector_7" opacity="0.3" d="M188.7 96.5579L178.328 96.5851C175.476 96.5926 173.136 94.1363 173.128 91.1266L173.099 80.1823C173.091 77.1727 175.418 74.7041 178.27 74.6966L188.642 74.6694C191.494 74.6619 193.835 77.1183 193.843 80.128L193.872 91.0722C193.88 94.0819 191.553 96.5505 188.7 96.5579Z" stroke="#444E59" stroke-width="1.0085" stroke-linecap="round" stroke-linejoin="round" stroke-dasharray="2.06 2.06"/>
</g>
<g id="5" opacity="0.3">
<path id="Vector_8" opacity="0.3" d="M246.071 96.4074L235.699 96.4346C232.847 96.4421 230.506 93.9857 230.498 90.9761L230.469 80.0318C230.461 77.0221 232.788 74.5536 235.641 74.5461L246.013 74.5189C248.865 74.5114 251.205 76.9678 251.213 79.9774L251.242 90.9217C251.25 93.9314 248.923 96.3999 246.071 96.4074Z" stroke="#444E59" stroke-width="1.0085" stroke-linecap="round" stroke-linejoin="round" stroke-dasharray="2.06 2.06"/>
</g>
<g id="4" opacity="0.3">
<path id="Vector_9" opacity="0.3" d="M217.548 96.4824L207.176 96.5096C204.323 96.517 201.983 94.0607 201.975 91.051L201.946 80.1068C201.938 77.0971 204.265 74.6285 207.117 74.6211L217.489 74.5939C220.342 74.5864 222.682 77.0427 222.69 80.0524L222.719 90.9966C222.727 94.0063 220.4 96.4749 217.548 96.4824Z" stroke="#444E59" stroke-width="1.0085" stroke-linecap="round" stroke-linejoin="round" stroke-dasharray="2.06 2.06"/>
</g>
</g>
<g id="SHAPE7" opacity="0.3">
<g id="1" opacity="0.3">
<path id="Vector_10" opacity="0.3" d="M188.613 63.725L178.241 63.7522C175.388 63.7597 173.048 61.3034 173.04 58.2937L173.011 47.3494C173.003 44.3398 175.33 41.8712 178.182 41.8637L188.554 41.8365C191.407 41.8291 193.747 44.2854 193.755 47.2951L193.784 58.2393C193.792 61.249 191.465 63.7176 188.613 63.725Z" stroke="#444E59" stroke-width="1.0085" stroke-linecap="round" stroke-linejoin="round" stroke-dasharray="2.06 2.06"/>
</g>
<g id="0" opacity="0.3">
<path id="Vector_11" opacity="0.3" d="M245.983 63.575L235.611 63.6022C232.759 63.6097 230.419 61.1533 230.411 58.1437L230.381 47.1994C230.373 44.1898 232.701 41.7212 235.553 41.7137L245.925 41.6865C248.777 41.679 251.118 44.1354 251.126 47.145L251.155 58.0893C251.163 61.099 248.836 63.5675 245.983 63.575Z" stroke="#444E59" stroke-width="1.0085" stroke-linecap="round" stroke-linejoin="round" stroke-dasharray="2.06 2.06"/>
</g>
<g id="SHAPE9" opacity="0.3">
<path id="Vector_12" opacity="0.3" d="M217.46 63.6496L207.088 63.6768C204.236 63.6843 201.896 61.2279 201.888 58.2183L201.858 47.274C201.85 44.2643 204.177 41.7958 207.03 41.7883L217.402 41.7611C220.254 41.7536 222.594 44.21 222.602 47.2196L222.632 58.1639C222.64 61.1736 220.313 63.6421 217.46 63.6496Z" stroke="#444E59" stroke-width="1.0085" stroke-linecap="round" stroke-linejoin="round" stroke-dasharray="2.06 2.06"/>
</g>
</g>
</g>
<path id="SHAPE 73" d="M188.876 162.223L178.504 162.25C175.651 162.258 173.311 159.802 173.303 156.792L173.274 145.848C173.266 142.838 175.593 140.369 178.445 140.362L188.817 140.335C191.67 140.327 194.01 142.784 194.018 145.793L194.047 156.737C194.055 159.747 191.728 162.216 188.876 162.223Z" fill="#71A850"/>
<path id="SHAPE 80" opacity="0.52" d="M188.817 140.335L178.445 140.362C176.371 140.367 174.559 141.672 173.786 143.522L194.022 147.301L194.018 145.795C194.01 142.784 191.67 140.327 188.817 140.335Z" fill="#5F8C42"/>
<path id="SHAPE 76" d="M188.876 162.223L178.504 162.25C175.651 162.258 173.311 159.802 173.303 156.792L173.274 145.848C173.266 142.838 175.593 140.369 178.445 140.362L188.817 140.335C191.67 140.327 194.01 142.784 194.018 145.793L194.047 156.737C194.055 159.747 191.728 162.216 188.876 162.223Z" stroke="#444E59" stroke-width="2.01701" stroke-miterlimit="10" stroke-linecap="round" stroke-linejoin="round"/>
<path id="SHAPE 72" d="M217.723 162.148L207.351 162.175C204.499 162.182 202.158 159.726 202.15 156.716L202.121 145.772C202.113 142.762 204.44 140.294 207.293 140.286L217.665 140.259C220.517 140.252 222.857 142.708 222.865 145.718L222.894 156.662C222.903 159.672 220.575 162.14 217.723 162.148Z" fill="#F09F54"/>
<path id="SHAPE 79" opacity="0.52" d="M217.665 140.259L207.293 140.286C205.218 140.292 203.406 141.596 202.634 143.446L222.869 147.225L222.865 145.72C222.857 142.709 220.517 140.252 217.665 140.259Z" fill="#D38444"/>
<path id="SHAPE 74" d="M217.723 162.148L207.351 162.175C204.499 162.182 202.158 159.726 202.15 156.716L202.121 145.772C202.113 142.762 204.44 140.294 207.293 140.286L217.665 140.259C220.517 140.252 222.857 142.708 222.865 145.718L222.894 156.662C222.903 159.672 220.575 162.14 217.723 162.148Z" stroke="#444E59" stroke-width="2.01701" stroke-miterlimit="10" stroke-linecap="round" stroke-linejoin="round"/>
<g id="SHAPE 33">
<path id="SHAPE 70" d="M246.159 129.24L235.787 129.267C232.934 129.275 230.594 126.819 230.586 123.809L230.557 112.865C230.549 109.855 232.876 107.386 235.728 107.379L246.1 107.352C248.952 107.344 251.293 109.801 251.301 112.81L251.33 123.754C251.338 126.764 249.011 129.233 246.159 129.24Z" fill="#2FA9ED"/>
</g>
<path id="SHAPE19" opacity="0.52" d="M246.1 107.352L235.728 107.379C233.654 107.384 231.842 108.689 231.069 110.539L251.305 114.318L251.301 112.812C251.293 109.802 248.953 107.344 246.1 107.352Z" fill="#288FBC"/>
<g id="SHAPE 69">
<path id="SHAPE 71" d="M246.159 129.24L235.787 129.267C232.934 129.275 230.594 126.819 230.586 123.809L230.557 112.865C230.549 109.855 232.876 107.386 235.728 107.379L246.1 107.352C248.952 107.344 251.293 109.801 251.301 112.81L251.33 123.754C251.338 126.764 249.011 129.233 246.159 129.24Z" stroke="#444E59" stroke-width="2.01701" stroke-miterlimit="10" stroke-linecap="round" stroke-linejoin="round"/>
</g>
<g id="SHAPE3">
<g id="Group">
<path id="SHAPE 90" d="M217.548 96.482L207.176 96.5092C204.323 96.5167 201.983 94.0603 201.975 91.0507L201.946 80.1064C201.938 77.0967 204.265 74.6282 207.117 74.6207L217.489 74.5935C220.342 74.586 222.682 77.0424 222.69 80.052L222.719 90.9963C222.727 94.006 220.4 96.4745 217.548 96.482Z" fill="#E7534E"/>
</g>
</g>
<path id="SHAPE24" opacity="0.52" d="M217.489 74.5935L207.117 74.6207C205.043 74.6261 203.231 75.931 202.458 77.7805L222.694 81.5594L222.69 80.054C222.682 77.0433 220.342 74.586 217.489 74.5935Z" fill="#BF4040"/>
<g id="SHAPE8">
<path id="3" d="M217.548 96.482L207.176 96.5092C204.323 96.5167 201.983 94.0603 201.975 91.0507L201.946 80.1064C201.938 77.0967 204.265 74.6282 207.117 74.6207L217.489 74.5935C220.342 74.586 222.682 77.0424 222.69 80.052L222.719 90.9963C222.727 94.006 220.4 96.4745 217.548 96.482Z" stroke="#444E59" stroke-width="2.01701" stroke-miterlimit="10" stroke-linecap="round" stroke-linejoin="round"/>
</g>
<path id="SHAPE0" d="M239.245 113.526L245.219 117.136C246.063 117.681 246.066 118.98 245.225 119.461L239.271 123.102C238.429 123.652 237.325 122.97 237.323 121.944L237.303 114.694C237.301 113.668 238.401 112.981 239.245 113.526Z" fill="white"/>
<path id="SHAPE5" d="M215.219 146.969L209.774 146.983C208.607 146.986 207.702 148.015 207.705 149.178L207.717 153.418C207.72 154.65 208.695 155.605 209.797 155.602L209.991 155.601L209.543 157.518C209.478 157.655 209.673 157.791 209.802 157.654L212.584 155.595L215.372 155.587C216.539 155.584 217.444 154.556 217.44 153.393L217.429 149.152C217.361 147.921 216.386 146.966 215.219 146.969Z" fill="white"/>
<path id="SHAPE1" d="M179.641 151.304L182.047 153.83C182.372 154.171 182.89 154.17 183.213 153.827L188.579 148.133" stroke="white" stroke-width="2.01701" stroke-miterlimit="10" stroke-linecap="round" stroke-linejoin="round"/>
<path id="SHAPE2" d="M212.346 90.6815C215.031 90.6744 217.202 88.3718 217.194 85.5386C217.187 82.7054 215.004 80.4142 212.319 80.4212C209.634 80.4283 207.463 82.7309 207.471 85.5641C207.478 88.3973 209.661 90.6885 212.346 90.6815Z" stroke="white" stroke-width="2.01701" stroke-miterlimit="10" stroke-linecap="round" stroke-linejoin="round"/>
<g id="SHAPE31">
<path id="SHAPE15" d="M173.107 58.9792L172.95 48.7193L166.468 48.8047C166.075 47.5061 165.618 46.3445 164.967 45.1833L169.492 40.2465L162.536 33.0825L158.011 38.0194C156.908 37.4066 155.74 36.9309 154.507 36.5921L154.424 29.7521L144.701 29.9144L144.784 36.7544C143.553 37.168 142.452 37.6497 141.352 38.3366L136.672 33.5607L129.885 40.8975L134.565 45.6734C133.985 46.8378 133.534 48.0702 133.213 49.3707L126.731 49.4561L126.888 59.716L133.37 59.6306C133.763 60.9292 134.22 62.0908 134.871 63.252L130.346 68.1888L137.302 75.3528L141.827 70.4159C142.93 71.0287 144.098 71.5044 145.331 71.8432L145.414 78.6832L155.138 78.5209L155.054 71.6809C156.285 71.2673 157.386 70.7856 158.486 70.0987L163.166 74.8746L169.953 67.5377L165.273 62.7619C165.853 61.5975 166.304 60.3651 166.625 59.0646L173.107 58.9792ZM150.102 62.186C145.889 62.2655 142.508 58.7174 142.432 54.2715C142.355 49.8255 145.717 46.2598 149.93 46.1804C154.143 46.1009 157.524 49.649 157.601 54.0949C157.612 58.541 154.251 62.1067 150.102 62.186Z" fill="white"/>
<path id="SHAPE91" d="M173.107 58.9792L172.95 48.7193L166.468 48.8047C166.075 47.5061 165.618 46.3445 164.967 45.1833L169.492 40.2465L162.536 33.0825L158.011 38.0194C156.908 37.4066 155.74 36.9309 154.507 36.5921L154.424 29.7521L144.701 29.9144L144.784 36.7544C143.553 37.168 142.452 37.6497 141.352 38.3366L136.672 33.5607L129.885 40.8975L134.565 45.6734C133.985 46.8378 133.534 48.0702 133.213 49.3707L126.731 49.4561L126.888 59.716L133.37 59.6306C133.763 60.9292 134.22 62.0908 134.871 63.252L130.346 68.1888L137.302 75.3528L141.827 70.4159C142.93 71.0287 144.098 71.5044 145.331 71.8432L145.414 78.6832L155.138 78.5209L155.054 71.6809C156.285 71.2673 157.386 70.7856 158.486 70.0987L163.166 74.8746L169.953 67.5377L165.273 62.7619C165.853 61.5975 166.304 60.3651 166.625 59.0646L173.107 58.9792ZM150.102 62.186C145.889 62.2655 142.508 58.7174 142.432 54.2715C142.355 49.8255 145.717 46.2598 149.93 46.1804C154.143 46.1009 157.524 49.649 157.601 54.0949C157.612 58.541 154.251 62.1067 150.102 62.186Z" fill="#BAD977"/>
<path id="34" d="M173.107 58.9792L172.95 48.7193L166.468 48.8047C166.075 47.5061 165.618 46.3445 164.967 45.1833L169.492 40.2465L162.536 33.0825L158.011 38.0194C156.908 37.4066 155.74 36.9309 154.507 36.5921L154.424 29.7521L144.701 29.9144L144.784 36.7544C143.553 37.168 142.452 37.6497 141.352 38.3366L136.672 33.5607L129.885 40.8975L134.565 45.6734C133.985 46.8378 133.534 48.0702 133.213 49.3707L126.731 49.4561L126.888 59.716L133.37 59.6306C133.763 60.9292 134.22 62.0908 134.871 63.252L130.346 68.1888L137.302 75.3528L141.827 70.4159C142.93 71.0287 144.098 71.5044 145.331 71.8432L145.414 78.6832L155.138 78.5209L155.054 71.6809C156.285 71.2673 157.386 70.7856 158.486 70.0987L163.166 74.8746L169.953 67.5377L165.273 62.7619C165.853 61.5975 166.304 60.3651 166.625 59.0646L173.107 58.9792ZM150.102 62.186C145.889 62.2655 142.508 58.7174 142.432 54.2715C142.355 49.8255 145.717 46.2598 149.93 46.1804C154.143 46.1009 157.524 49.649 157.601 54.0949C157.612 58.541 154.251 62.1067 150.102 62.186Z" fill="#BAD977"/>
<g id="46" opacity="0.29">
<path id="50" opacity="0.29" d="M170.616 48.7928L173.015 48.7865L173.015 48.7175L170.616 48.7928Z" fill="#BAD977"/>
<path id="52" opacity="0.29" d="M162.161 38.0768L164.681 35.3332L162.601 33.149L159.24 36.7844C160.278 37.1238 161.251 37.5318 162.161 38.0768Z" fill="#BAD977"/>
<path id="55" opacity="0.29" d="M153.949 46.1681C153.236 46.17 152.588 46.3085 152.005 46.4468C155.184 47.3961 157.526 50.3997 157.536 54.025C157.61 57.7185 155.22 60.8712 152.046 61.8372C152.695 62.0407 153.473 62.1755 154.186 62.1052C158.4 62.0257 161.696 58.3918 161.684 54.0141C161.673 49.6364 158.163 46.1571 153.949 46.1681Z" fill="#BAD977"/>
<path id="59" opacity="0.29" d="M144.266 36.9593L145.566 38.2555C146.666 37.637 147.766 37.0869 148.997 36.6733L148.914 29.8333L154.489 29.7503L154.489 29.6819L144.765 29.8442L144.848 36.6842C144.719 36.8213 144.46 36.8904 144.266 36.9593Z" fill="#BAD977"/>
<path id="63" opacity="0.29" d="M149.415 71.7626C148.182 71.4238 147.014 70.948 145.911 70.3353L144.747 71.638C144.942 71.7059 145.136 71.7738 145.331 71.8417L145.414 78.6817L149.498 78.6026L149.415 71.7626Z" fill="#BAD977"/>
<path id="67" opacity="0.29" d="M130.944 49.375L137.427 49.2896C137.747 47.9891 138.198 46.7567 138.778 45.5923L134.098 40.8164L138.881 35.6737L136.801 33.4903L130.014 40.8271L134.694 45.603C134.114 46.7674 133.663 47.9998 133.343 49.3003L126.86 49.3857L127.017 59.6456L131.101 59.5664L130.944 49.375Z" fill="#BAD977"/>
<path id="70" opacity="0.29" d="M162.57 70.0861C161.664 70.6359 160.757 71.0488 159.786 71.3935L163.166 74.8744L165.17 72.6795L162.57 70.0861Z" fill="#BAD977"/>
<path id="71" opacity="0.29" d="M134.495 68.0394L139.02 63.1026C138.433 61.9413 137.911 60.7799 137.519 59.4813L133.435 59.5604C133.827 60.7906 134.284 62.0206 134.871 63.1135L130.346 68.0503L137.302 75.2143L139.305 73.0202L134.495 68.0394Z" fill="#BAD977"/>
</g>
<path id="SHAPE30" d="M143.44 54.2541C143.508 58.2128 146.495 61.2452 150.083 61.1777L143.44 54.2541ZM143.44 54.2541C143.372 50.3312 146.324 47.257 149.949 47.1887M143.44 54.2541L149.949 47.1887M149.949 47.1887C153.535 47.1211 156.52 50.1498 156.592 54.1049M149.949 47.1887L156.592 54.1049M156.592 54.1049C156.599 58.0437 153.634 61.1097 150.083 61.1777L156.592 54.1049ZM173.12 59.9876C173.388 59.9841 173.644 59.8742 173.83 59.6821C174.017 59.4901 174.119 59.2316 174.115 58.9638L173.958 48.7039C173.95 48.1478 173.493 47.7036 172.937 47.7109L167.202 47.7864C166.919 46.9428 166.595 46.1381 166.192 45.3393L170.235 40.9279C170.596 40.5342 170.587 39.9273 170.215 39.544L163.26 32.38C163.066 32.1808 162.799 32.0702 162.522 32.0741C162.244 32.0781 161.98 32.1964 161.793 32.4011L157.792 36.766C157.056 36.4018 156.294 36.0926 155.506 35.8384L155.432 29.7399C155.429 29.4716 155.319 29.2157 155.127 29.0288C154.934 28.8418 154.675 28.7393 154.407 28.7437L144.684 28.906C144.129 28.9153 143.685 29.3714 143.692 29.9266L143.766 36.0447C142.993 36.3335 142.254 36.663 141.521 37.0679L137.392 32.8549C137.199 32.6577 136.933 32.5484 136.657 32.5523C136.381 32.5563 136.119 32.6732 135.932 32.8759L129.144 40.2127C128.779 40.6074 128.788 41.2193 129.164 41.6034L133.353 45.8771C132.991 46.6806 132.686 47.5125 132.437 48.3723L126.718 48.4477C126.45 48.4512 126.195 48.5611 126.008 48.7532C125.821 48.9452 125.719 49.2037 125.723 49.4715L125.88 59.7314C125.888 60.2875 126.345 60.7317 126.901 60.7244L132.636 60.6489C132.919 61.4925 133.243 62.2972 133.646 63.096L129.603 67.5074C129.242 67.9011 129.251 68.508 129.623 68.8913L136.578 76.0553C136.772 76.2545 137.039 76.3652 137.317 76.3612C137.594 76.3572 137.858 76.2389 138.045 76.0342L142.046 71.6694C142.782 72.0335 143.545 72.3427 144.332 72.5969L144.406 78.6954C144.409 78.9637 144.519 79.2196 144.711 79.4065C144.904 79.5935 145.163 79.696 145.431 79.6916L155.154 79.5293C155.71 79.52 156.153 79.0638 156.146 78.5087L156.072 72.3906C156.845 72.1018 157.584 71.7723 158.317 71.3674L162.446 75.5804C162.639 75.7776 162.905 75.8869 163.181 75.883C163.457 75.879 163.719 75.7621 163.907 75.5594L170.694 68.2226C171.059 67.8278 171.05 67.216 170.674 66.8319L166.486 62.5582C166.847 61.7547 167.152 60.9228 167.401 60.063L173.12 59.9876Z" stroke="#444E59" stroke-width="2.01701" stroke-miterlimit="10" stroke-linecap="round" stroke-linejoin="round"/>
</g>
<g id="SHAPE90">
<path id="SHAPE83" d="M132.986 207.036L52.7967 207.246C50.1389 207.253 47.9936 205.002 47.9861 202.197L47.8317 144.33C47.8243 141.525 49.9575 139.262 52.6153 139.255L132.869 139.045C135.527 139.038 137.672 141.29 137.68 144.094L137.834 201.962C137.777 204.766 135.644 207.029 132.986 207.036Z" fill="#444E59"/>
<path id="SHAPE34" d="M137.631 150.045L47.8476 150.281L47.8317 144.33C47.8243 141.525 49.9575 139.262 52.6153 139.255L132.869 139.045C135.527 139.038 137.672 141.29 137.68 144.094L137.696 150.045L137.631 150.045Z" fill="#BCBCBC"/>
<path id="SHAPE32" d="M132.986 207.036L52.7967 207.246C50.1389 207.253 47.9936 205.002 47.9861 202.197L47.8317 144.33C47.8243 141.525 49.9575 139.262 52.6153 139.255L132.869 139.045C135.527 139.038 137.672 141.29 137.68 144.094L137.834 201.962C137.777 204.766 135.644 207.029 132.986 207.036Z" stroke="#444E59" stroke-width="2.01701" stroke-miterlimit="10" stroke-linecap="round" stroke-linejoin="round"/>
<path id="SHAPE82" d="M132.986 207.036L52.7967 207.246C50.1389 207.253 47.9936 205.002 47.9861 202.197L47.8317 144.33C47.8243 141.525 49.9575 139.262 52.6153 139.255L132.869 139.045C135.527 139.038 137.672 141.29 137.68 144.094L137.834 201.962C137.777 204.766 135.644 207.029 132.986 207.036Z" stroke="#444E59" stroke-width="2.01701" stroke-miterlimit="10" stroke-linecap="round" stroke-linejoin="round"/>
<path id="SHAPE33" d="M137.631 150.045L47.8476 150.281L47.8317 144.33C47.8243 141.525 49.9575 139.262 52.6153 139.255L132.869 139.045C135.527 139.038 137.672 141.29 137.68 144.094L137.696 150.045L137.631 150.045Z" stroke="#444E59" stroke-width="2.01701" stroke-miterlimit="10" stroke-linecap="round" stroke-linejoin="round"/>
<g id="SHAPE35">
<g id="SHAPE69">
<path id="SHAPE72" d="M60.358 198.54L70.4707 198.513" stroke="white" stroke-width="2.01701" stroke-miterlimit="10" stroke-linecap="round" stroke-linejoin="round"/>
<path id="SHAPE71" d="M53.2274 198.558L53.9406 198.556" stroke="white" stroke-width="2.01701" stroke-miterlimit="10" stroke-linecap="round" stroke-linejoin="round"/>
</g>
<g id="SHAPE65">
<path id="SHAPE68" d="M60.3424 192.656L85.9481 192.589" stroke="white" stroke-width="2.01701" stroke-miterlimit="10" stroke-linecap="round" stroke-linejoin="round"/>
<path id="SHAPE67" d="M53.2115 192.675L53.9247 192.673" stroke="white" stroke-width="2.01701" stroke-miterlimit="10" stroke-linecap="round" stroke-linejoin="round"/>
</g>
<g id="SHAPE60">
<path id="SHAPE63" d="M98.1196 186.607L105.121 186.589" stroke="#64BDFF" stroke-width="2.01701" stroke-miterlimit="10" stroke-linecap="round" stroke-linejoin="round"/>
<path id="SHAPE85" d="M79.0612 186.657L92.0261 186.623" stroke="white" stroke-width="2.01701" stroke-miterlimit="10" stroke-linecap="round" stroke-linejoin="round"/>
<path id="SHAPE64" d="M60.3265 186.706L73.1618 186.673" stroke="#FF5F5F" stroke-width="2.01701" stroke-miterlimit="10" stroke-linecap="round" stroke-linejoin="round"/>
<path id="SHAPE62" d="M53.1958 186.725L53.909 186.723" stroke="white" stroke-width="2.01701" stroke-miterlimit="10" stroke-linecap="round" stroke-linejoin="round"/>
</g>
<g id="SHAPE56">
<path id="SHAPE73" d="M81.8975 180.767L113.143 180.685" stroke="white" stroke-width="2.01701" stroke-miterlimit="10" stroke-linecap="round" stroke-linejoin="round"/>
<path id="SHAPE59" d="M60.3107 180.823L76.6465 180.781" stroke="#64BDFF" stroke-width="2.01701" stroke-miterlimit="10" stroke-linecap="round" stroke-linejoin="round"/>
<path id="SHAPE58" d="M53.1801 180.842L53.8932 180.84" stroke="white" stroke-width="2.01701" stroke-miterlimit="10" stroke-linecap="round" stroke-linejoin="round"/>
</g>
<g id="SHAPE52">
<path id="SHAPE70" d="M81.882 174.885L93.5504 174.854" stroke="#FF5F5F" stroke-width="2.01701" stroke-miterlimit="10" stroke-linecap="round" stroke-linejoin="round"/>
<path id="SHAPE55" d="M60.2952 174.941L76.631 174.898" stroke="#FFBE78" stroke-width="2.01701" stroke-miterlimit="10" stroke-linecap="round" stroke-linejoin="round"/>
<path id="SHAPE54" d="M53.1644 174.96L53.8776 174.958" stroke="white" stroke-width="2.01701" stroke-miterlimit="10" stroke-linecap="round" stroke-linejoin="round"/>
</g>
<g id="SHAPE48">
<path id="SHAPE57" d="M84.1353 168.995L87.3121 168.987" stroke="#64BDFF" stroke-width="2.01701" stroke-miterlimit="10" stroke-linecap="round" stroke-linejoin="round"/>
<path id="SHAPE61" d="M71.8184 169.028L79.0139 169.009" stroke="#FF5F5F" stroke-width="2.01701" stroke-miterlimit="10" stroke-linecap="round" stroke-linejoin="round"/>
<path id="SHAPE51" d="M60.2794 169.058L66.2433 169.042" stroke="#C383F2" stroke-width="2.01701" stroke-miterlimit="10" stroke-linecap="round" stroke-linejoin="round"/>
<path id="SHAPE50" d="M53.1487 169.077L53.8618 169.075" stroke="white" stroke-width="2.01701" stroke-miterlimit="10" stroke-linecap="round" stroke-linejoin="round"/>
</g>
<g id="SHAPE44">
<path id="SHAPE37" d="M107.456 162.984L113.096 162.969" stroke="#64BDFF" stroke-width="2.01701" stroke-miterlimit="10" stroke-linecap="round" stroke-linejoin="round"/>
<path id="SHAPE49" d="M78.2203 163.061L100.325 163.003" stroke="#FF5F5F" stroke-width="2.01701" stroke-miterlimit="10" stroke-linecap="round" stroke-linejoin="round"/>
<path id="SHAPE47" d="M60.2635 163.108L73.4229 163.073" stroke="#FFBE78" stroke-width="2.01701" stroke-miterlimit="10" stroke-linecap="round" stroke-linejoin="round"/>
<path id="SHAPE46" d="M53.1329 163.126L53.8461 163.125" stroke="white" stroke-width="2.01701" stroke-miterlimit="10" stroke-linecap="round" stroke-linejoin="round"/>
</g>
<g id="SHAPE39">
<path id="SHAPE45" d="M93.5032 157.138L105.042 157.108" stroke="#FFBE78" stroke-width="2.01701" stroke-miterlimit="10" stroke-linecap="round" stroke-linejoin="round"/>
<path id="SHAPE38" d="M78.9825 157.176L87.9283 157.152" stroke="#6DBF7B" stroke-width="2.01701" stroke-miterlimit="10" stroke-linecap="round" stroke-linejoin="round"/>
<path id="SHAPE40" d="M69.2585 157.201L74.3149 157.188" stroke="#FFBE78" stroke-width="2.01701" stroke-miterlimit="10" stroke-linecap="round" stroke-linejoin="round"/>
<path id="SHAPE43" d="M60.2479 157.225L64.3967 157.214" stroke="#6DBF7B" stroke-width="2.01701" stroke-miterlimit="10" stroke-linecap="round" stroke-linejoin="round"/>
<path id="SHAPE42" d="M53.1171 157.244L53.8302 157.242" stroke="white" stroke-width="2.01701" stroke-miterlimit="10" stroke-linecap="round" stroke-linejoin="round"/>
</g>
</g>
<g id="SHAPE53">
<path id="SHAPE36" d="M56.7185 146.497C57.6136 146.495 58.3368 145.727 58.3343 144.782C58.3318 143.837 57.6044 143.073 56.7094 143.075C55.8143 143.077 55.091 143.845 55.0936 144.79C55.0961 145.736 55.8234 146.5 56.7185 146.497Z" fill="#E7534E"/>
<path id="SHAPE66" d="M62.5526 146.482C63.4477 146.48 64.1709 145.712 64.1684 144.767C64.1659 143.821 63.4385 143.057 62.5435 143.06C61.6484 143.062 60.9251 143.83 60.9277 144.775C60.9302 145.72 61.6575 146.484 62.5526 146.482Z" fill="#444E59"/>
<path id="SHAPE74" d="M68.4518 146.467C69.3469 146.464 70.0701 145.697 70.0676 144.751C70.065 143.806 69.3377 143.042 68.4426 143.044C67.5475 143.047 66.8243 143.815 66.8268 144.76C66.8294 145.705 67.5567 146.469 68.4518 146.467Z" fill="#444E59"/>
</g>
</g>
<path id="SHAPE76" d="M164.809 155.993L106.725 156.146C103.873 156.153 101.533 153.697 101.525 150.687L101.377 95.3502C101.369 92.3405 103.696 89.8719 106.548 89.8645L164.632 89.7122C167.484 89.7047 169.824 92.1611 169.832 95.1707L169.98 150.508C169.988 153.517 167.661 155.986 164.809 155.993Z" fill="white"/>
<path id="SHAPE84" d="M164.809 155.993L106.725 156.146C103.873 156.153 101.533 153.697 101.525 150.687L101.377 95.3502C101.369 92.3405 103.696 89.8719 106.548 89.8645L164.632 89.7122C167.484 89.7047 169.824 92.1611 169.832 95.1707L169.98 150.508C169.988 153.517 167.661 155.986 164.809 155.993Z" fill="white"/>
<path id="SHAPE75" d="M164.809 155.993L106.725 156.146C103.873 156.153 101.533 153.697 101.525 150.687L101.377 95.3502C101.369 92.3405 103.696 89.8719 106.548 89.8645L164.632 89.7122C167.484 89.7047 169.824 92.1611 169.832 95.1707L169.98 150.508C169.988 153.517 167.661 155.986 164.809 155.993Z" stroke="#444E59" stroke-width="2.01701" stroke-miterlimit="10" stroke-linecap="round" stroke-linejoin="round"/>
<path id="SHAPE86" d="M163.545 95.3239L107.276 95.4714L107.382 134.939L163.65 134.792L163.545 95.3239Z" fill="#9126BF"/>
<path id="SHAPE77" d="M163.545 95.3239L107.276 95.4714L107.382 134.939L163.65 134.792L163.545 95.3239Z" stroke="#444E59" stroke-width="2.01701" stroke-miterlimit="10" stroke-linecap="round" stroke-linejoin="round"/>
<path id="SHAPE79" d="M107.399 141.232L142.922 141.139" stroke="#444E59" stroke-width="2.01701" stroke-miterlimit="10" stroke-linecap="round" stroke-linejoin="round"/>
<path id="SHAPE80" d="M107.415 147.525L128.418 147.47" stroke="#444E59" stroke-width="2.01701" stroke-miterlimit="10" stroke-linecap="round" stroke-linejoin="round"/>
<path id="SHAPE78" d="M113.003 127.879L125.091 115.193L136.403 127.065" stroke="white" stroke-width="2.01701" stroke-miterlimit="10" stroke-linecap="round" stroke-linejoin="round"/>
<path id="SHAPE81" d="M157.538 127.762L142.833 107.622L131.137 121.47" stroke="#EEEEEE" stroke-width="2.01701" stroke-miterlimit="10" stroke-linecap="round" stroke-linejoin="round"/>
<path id="SHAPE87" d="M157.46 147.328C159.214 147.323 160.633 145.818 160.628 143.967C160.623 142.115 159.196 140.618 157.442 140.622C155.688 140.627 154.27 142.132 154.275 143.983C154.28 145.835 155.706 147.333 157.46 147.328Z" stroke="#444E59" stroke-width="2.01701" stroke-miterlimit="10" stroke-linecap="round" stroke-linejoin="round"/>
<path id="SHAPE89" d="M128.648 111.9C130.868 111.895 132.662 109.991 132.656 107.649C132.65 105.307 130.845 103.413 128.625 103.419C126.406 103.424 124.611 105.328 124.618 107.67C124.624 110.012 126.428 111.906 128.648 111.9Z" fill="#F09F54"/>
<path id="SHAPE88" d="M128.648 111.9C130.868 111.895 132.662 109.991 132.656 107.649C132.65 105.307 130.845 103.413 128.625 103.419C126.406 103.424 124.611 105.328 124.618 107.67C124.624 110.012 126.428 111.906 128.648 111.9Z" stroke="white" stroke-width="2.01701" stroke-miterlimit="10" stroke-linecap="round" stroke-linejoin="round"/>
<g id="SHAPE94">
<path id="SHAPE98" d="M100.208 70.3865L117.581 70.3409" stroke="#444E59" stroke-width="2.01701" stroke-miterlimit="10" stroke-linecap="round" stroke-linejoin="round"/>
<path id="SHAPE95" d="M90.9384 70.4109L95.5409 70.3988" stroke="#444E59" stroke-width="2.01701" stroke-miterlimit="10" stroke-linecap="round" stroke-linejoin="round"/>
<path id="SHAPE99" d="M108.872 61.882L117.559 61.8592" stroke="#444E59" stroke-width="2.01701" stroke-miterlimit="10" stroke-linecap="round" stroke-linejoin="round"/>
<path id="SHAPE96" d="M101.871 61.9003L104.465 61.8935" stroke="#444E59" stroke-width="2.01701" stroke-miterlimit="10" stroke-linecap="round" stroke-linejoin="round"/>
</g>
<g id="00">
<path id="05" d="M81.5519 124.063L95.1002 124.027" stroke="#444E59" stroke-width="2.01701" stroke-miterlimit="10" stroke-linecap="round" stroke-linejoin="round"/>
<path id="04" d="M74.3564 124.082L77.9212 124.072" stroke="#444E59" stroke-width="2.01701" stroke-miterlimit="10" stroke-linecap="round" stroke-linejoin="round"/>
<path id="02" d="M89.5676 115.56L95.0777 115.545" stroke="#444E59" stroke-width="2.01701" stroke-miterlimit="10" stroke-linecap="round" stroke-linejoin="round"/>
<path id="01" d="M82.8257 115.578L84.9003 115.572" stroke="#444E59" stroke-width="2.01701" stroke-miterlimit="10" stroke-linecap="round" stroke-linejoin="round"/>
</g>
<g id="29">
<path id="33" d="M297.35 24.2455L310.185 24.2118" stroke="#444E59" stroke-width="2.01701" stroke-miterlimit="10" stroke-linecap="round" stroke-linejoin="round"/>
<path id="32" d="M289.441 24.2662L293.071 24.2567" stroke="#444E59" stroke-width="2.01701" stroke-miterlimit="10" stroke-linecap="round" stroke-linejoin="round"/>
<path id="31" d="M304.653 15.7445L310.163 15.7301" stroke="#444E59" stroke-width="2.01701" stroke-miterlimit="10" stroke-linecap="round" stroke-linejoin="round"/>
<path id="30" d="M297.976 15.762L299.985 15.7567" stroke="#444E59" stroke-width="2.01701" stroke-miterlimit="10" stroke-linecap="round" stroke-linejoin="round"/>
</g>
<path id="11" d="M307.461 72.0323L256.767 72.1652C253.656 72.1733 251.185 69.5121 251.177 66.2972L251.108 40.373C251.099 37.0897 253.62 34.4839 256.667 34.4759L307.36 34.343C310.472 34.3348 312.942 36.996 312.951 40.2109L313.02 66.0667C313.029 69.35 310.572 72.0241 307.461 72.0323Z" fill="#CF89D9"/>
<path id="SHAPE97" d="M307.461 72.0323L256.767 72.1652C253.656 72.1733 251.185 69.5121 251.177 66.2972L251.108 40.373C251.099 37.0897 253.62 34.4839 256.667 34.4759L307.36 34.343C310.472 34.3348 312.942 36.996 312.951 40.2109L313.02 66.0667C313.029 69.35 310.572 72.0241 307.461 72.0323Z" stroke="#444E59" stroke-width="1.51276" stroke-miterlimit="10" stroke-linecap="round" stroke-linejoin="round"/>
<path id="14" opacity="0.56" d="M282.041 44.5328L303.951 44.4754" stroke="white" stroke-width="1.51276" stroke-miterlimit="10" stroke-linecap="round" stroke-linejoin="round"/>
<path id="16" opacity="0.56" d="M282.06 51.9884L296.581 51.9503" stroke="white" stroke-width="1.51276" stroke-miterlimit="10" stroke-linecap="round" stroke-linejoin="round"/>
<g id="24" opacity="0.56">
<path id="17" opacity="0.56" d="M293.11 63.1107L284.294 63.1338C283.127 63.1369 282.152 62.113 282.149 60.8814C282.146 59.6497 283.115 58.6207 284.282 58.6177L293.098 58.5946C294.265 58.5915 295.24 59.6154 295.244 60.847C295.247 62.0787 294.342 63.1075 293.11 63.1107Z" fill="white"/>
<path id="13" opacity="0.56" d="M293.11 63.1107L284.294 63.1338C283.127 63.1369 282.152 62.113 282.149 60.8814C282.146 59.6497 283.115 58.6207 284.282 58.6177L293.098 58.5946C294.265 58.5915 295.24 59.6154 295.244 60.847C295.247 62.0787 294.342 63.1075 293.11 63.1107Z" stroke="white" stroke-width="1.51276" stroke-miterlimit="10" stroke-linecap="round" stroke-linejoin="round"/>
</g>
<g id="26">
<path id="06" d="M272.951 63.5038L261.347 63.5342C259.662 63.5386 258.361 62.1056 258.357 60.3955L258.319 46.0996C258.314 44.3212 259.671 42.9496 261.292 42.9453L272.896 42.9149C274.581 42.9105 275.882 44.3435 275.886 46.0536L275.924 60.3495C275.929 62.0595 274.636 63.4994 272.951 63.5038Z" stroke="white" stroke-width="1.51276" stroke-miterlimit="10" stroke-linecap="round" stroke-linejoin="round"/>
<path id="25" d="M267.156 54.1502C268.875 54.1457 270.264 52.6716 270.259 50.8576C270.254 49.0436 268.857 47.5768 267.139 47.5813C265.42 47.5858 264.031 49.0599 264.036 50.8739C264.041 52.6879 265.438 54.1547 267.156 54.1502Z" stroke="white" stroke-width="1.51276" stroke-miterlimit="10" stroke-linecap="round" stroke-linejoin="round"/>
<path id="27" d="M261.281 63.1948C261.272 59.7735 263.923 56.9611 267.164 56.9526C270.405 56.9441 273.07 59.7426 273.08 63.1639" stroke="white" stroke-width="1.51276" stroke-miterlimit="10" stroke-linecap="round" stroke-linejoin="round"/>
</g>
</g>
</svg>
