<svg width="554" height="383" viewBox="0 0 554 383" fill="none" xmlns="http://www.w3.org/2000/svg">
<path d="M537.895 233.248C517.805 293.075 480.032 345.489 427.567 368.524C420.743 371.516 413.775 374.054 406.698 376.125C369.266 387.101 328.316 383.283 293.811 363.283C279.166 354.788 265.812 343.563 251.114 335.189C236.416 326.816 219.632 321.336 203.635 325.469C189.861 329.028 178.24 339.226 166.539 348.311C138.956 369.729 105.79 386.679 73.1275 379.322C58.0982 375.942 43.2988 366.577 36.319 350.924C20.8919 316.318 49.9868 275.174 44.0944 236.903C40.3238 212.409 23.102 194.066 12.3959 172.45C-5.92659 135.475 -3.7606 86.3596 17.7224 51.7132C39.2055 17.0667 78.8651 -1.31147 115.227 6.54818C159.568 16.1364 193.092 59.2931 236.209 74.5651C263.173 84.1075 292.449 81.2605 318.202 68.6932C359.811 48.3833 416.976 17.2345 463.801 22.3082C488.701 25.0077 513.123 37.7174 529.558 59.4202C550.334 86.8172 556.562 125.714 553.097 161.84C550.719 186.295 545.609 210.295 537.895 233.248Z" fill="url(#paint0_linear_255_181)"/>
<path d="M403.739 379.672H169.093V374.629H403.739C404.417 374.629 405.067 374.895 405.547 375.368C406.026 375.84 406.296 376.482 406.296 377.151C406.296 377.82 406.026 378.461 405.547 378.934C405.067 379.407 404.417 379.672 403.739 379.672Z" fill="#426572"/>
<path d="M158.148 379.672H144.27C143.614 379.672 142.985 379.407 142.521 378.934C142.057 378.461 141.796 377.82 141.796 377.151C141.796 376.482 142.057 375.84 142.521 375.368C142.985 374.895 143.614 374.629 144.27 374.629H158.148C158.804 374.629 159.433 374.895 159.897 375.368C160.361 375.84 160.622 376.482 160.622 377.151C160.622 377.82 160.361 378.461 159.897 378.934C159.433 379.407 158.804 379.672 158.148 379.672Z" fill="#426572"/>
<path d="M134.605 379.672H130.162C129.503 379.672 128.871 379.407 128.405 378.934C127.939 378.461 127.677 377.82 127.677 377.151C127.677 376.482 127.939 375.84 128.405 375.368C128.871 374.895 129.503 374.629 130.162 374.629H134.605C135.264 374.629 135.896 374.895 136.362 375.368C136.828 375.84 137.09 376.482 137.09 377.151C137.09 377.82 136.828 378.461 136.362 378.934C135.896 379.407 135.264 379.672 134.605 379.672Z" fill="#426572"/>
<g filter="url(#filter0_d_255_181)">
<path d="M485.641 379.672H413.826V374.629H485.641C486.314 374.629 486.964 374.895 487.442 375.368C487.92 375.84 488.187 376.482 488.187 377.151C488.187 377.82 487.92 378.461 487.442 378.934C486.964 379.407 486.314 379.672 485.641 379.672Z" fill="#426572"/>
</g>
<g filter="url(#filter1_d_255_181)">
<path d="M117.569 379.672H44.8444V374.629H117.569C118.252 374.629 118.908 374.895 119.391 375.368C119.875 375.84 120.147 376.482 120.147 377.151C120.147 377.82 119.875 378.461 119.391 378.934C118.908 379.407 118.252 379.672 117.569 379.672Z" fill="#426572"/>
</g>
<path d="M128.234 152.737H416.093C416.784 152.737 417.469 152.892 418.107 153.192C418.746 153.494 419.326 153.935 419.815 154.491C420.304 155.047 420.691 155.708 420.956 156.435C421.22 157.162 421.356 157.941 421.356 158.727V366.561H122.971V158.727C122.971 157.941 123.107 157.162 123.371 156.435C123.636 155.708 124.023 155.047 124.512 154.491C125.001 153.935 125.581 153.494 126.22 153.192C126.858 152.892 127.543 152.737 128.234 152.737Z" fill="#EBF0F9"/>
<path d="M411.002 166.857H134.266V347.397H411.002V166.857Z" fill="#637F91"/>
<path d="M132.383 346.388H411.943C411.943 347.993 411.446 349.533 410.559 350.667C409.673 351.802 408.472 352.44 407.218 352.44H137.108C135.855 352.44 134.653 351.802 133.767 350.667C132.881 349.533 132.383 347.993 132.383 346.388Z" fill="white"/>
<g opacity="0.5">
<path opacity="0.5" d="M217.084 166.57L175.784 348.02H154.984L196.284 166.57H217.084Z" fill="#A7BCD5"/>
<path opacity="0.5" d="M270.104 166.57L228.799 348.02H185.184L226.484 166.57H270.104Z" fill="#A7BCD5"/>
</g>
<path d="M423.239 368.578H121.088V172.749C121.094 166.641 123.226 160.786 127.014 156.466C130.802 152.147 135.939 149.718 141.296 149.711H254.433V155.084H141.296C137.188 155.089 133.25 156.952 130.345 160.264C127.44 163.576 125.806 168.066 125.801 172.749V363.205H418.526V159.976C418.525 158.679 418.073 157.435 417.268 156.518C416.463 155.601 415.372 155.084 414.234 155.084H306.658V149.711H414.234C416.62 149.719 418.906 150.804 420.593 152.727C422.28 154.65 423.231 157.257 423.239 159.976V368.578Z" fill="#426572"/>
<path d="M85.3195 359.5H466.537V360.92C466.537 365.626 464.92 370.139 462.044 373.467C459.163 376.794 455.26 378.664 451.191 378.664H100.666C96.5961 378.664 92.6925 376.794 89.8144 373.467C86.9364 370.139 85.3195 365.626 85.3195 360.92V359.5Z" fill="#EBF0F9"/>
<path opacity="0.5" d="M464.655 368.578C463.817 371.25 462.339 373.548 460.417 375.169C458.494 376.789 456.218 377.656 453.887 377.655H96.0875C93.7558 377.656 91.4792 376.789 89.5567 375.169C87.6343 373.548 86.1572 371.25 85.3195 368.578H464.655Z" fill="#A7BCD5"/>
<g filter="url(#filter2_d_255_181)">
<path d="M449.772 380.681H99.2612C94.5665 380.675 90.0658 378.552 86.7464 374.779C83.4269 371.006 81.5594 365.89 81.5543 360.554V356.474H467.479V360.554C467.475 365.89 465.606 371.006 462.289 374.779C458.967 378.552 454.466 380.675 449.772 380.681ZM86.3273 361.837C86.6106 365.515 88.0964 368.939 90.4916 371.433C92.8868 373.927 96.0169 375.31 99.2652 375.309H449.776C453.022 375.31 456.154 373.927 458.55 371.433C460.943 368.939 462.43 365.515 462.714 361.837H86.3273Z" fill="#426572"/>
</g>
<path d="M412.885 348.406H131.442V164.84H412.885V348.406ZM136.17 343.041H408.153V170.204H136.174L136.17 343.041Z" fill="#426572"/>
<path d="M300.872 149.711H291.459V155.763H300.872V149.711Z" fill="#426572"/>
<path d="M285.812 149.711H262.28V155.763H285.812V149.711Z" fill="#426572"/>
<path d="M483.165 172.909C482.369 172.908 481.576 172.795 480.803 172.574C478.357 171.868 476.235 170.094 474.867 167.613C473.499 165.133 472.988 162.132 473.442 159.225C473.891 156.318 475.274 153.724 477.301 151.971C479.328 150.219 481.851 149.44 484.35 149.795C486.85 150.15 489.14 151.611 490.751 153.881C492.367 156.15 493.178 159.056 493.03 162.006C492.877 164.956 491.772 167.727 489.94 169.753C488.107 171.779 485.684 172.908 483.165 172.909ZM483.165 154.943C481.855 154.948 480.593 155.516 479.614 156.539C478.635 157.562 478.01 158.969 477.854 160.495C477.701 162.021 478.025 163.562 478.772 164.826C479.515 166.091 480.628 166.992 481.9 167.36C482.636 167.568 483.401 167.59 484.148 167.426C484.891 167.261 485.596 166.914 486.217 166.406C486.838 165.899 487.364 165.242 487.753 164.48C488.141 163.718 488.393 162.868 488.48 161.986C488.572 161.103 488.499 160.209 488.275 159.36C488.05 158.512 487.673 157.73 487.17 157.064C486.667 156.399 486.053 155.866 485.36 155.5C484.67 155.134 483.923 154.944 483.165 154.943Z" fill="#E7F6FF"/>
<path d="M492.909 196.647C493.519 193.941 491.97 191.215 489.442 190.559C486.917 189.903 484.376 191.565 483.762 194.271C483.151 196.977 484.7 199.702 487.225 200.359C489.753 201.015 492.294 199.353 492.909 196.647Z" fill="#E7F6FF"/>
<path d="M70.9063 176.012C68.1805 175.945 65.5882 174.677 63.6921 172.482C61.796 170.286 60.7493 167.342 60.7791 164.288C60.8089 161.233 61.9128 158.315 63.8512 156.167C65.7896 154.019 68.406 152.814 71.1325 152.814C73.859 152.814 76.4754 154.019 78.4138 156.167C80.3523 158.315 81.4562 161.233 81.486 164.288C81.5157 167.342 80.469 170.286 78.5729 172.482C76.6769 174.677 74.0845 175.945 71.3587 176.012H70.9063ZM70.9063 158.151H70.6721C69.1999 158.187 67.7997 158.872 66.7756 160.057C65.7514 161.243 65.1858 162.833 65.2018 164.483C65.2177 166.132 65.8138 167.708 66.8607 168.869C67.9076 170.029 69.3207 170.68 70.7932 170.68C72.2657 170.68 73.6788 170.029 74.7257 168.869C75.7726 167.708 76.3687 166.132 76.3846 164.483C76.4006 162.833 75.835 161.243 74.8108 160.057C73.7866 158.872 72.3864 158.187 70.9142 158.151H70.9063Z" fill="#E7F6FF"/>
<path d="M63.3138 196.179C65.6509 196.047 67.4638 193.459 67.363 190.398C67.2622 187.337 65.2858 184.962 62.9487 185.095C60.6116 185.227 58.7987 187.815 58.8995 190.876C59.0003 193.936 60.9767 196.311 63.3138 196.179Z" fill="#E7F6FF"/>
<mask id="mask0_255_181" style="mask-type:luminance" maskUnits="userSpaceOnUse" x="169" y="179" width="243" height="187">
<path d="M411.694 179.676H169.694V365.676H411.694V179.676Z" fill="white"/>
</mask>
<g mask="url(#mask0_255_181)">
<path d="M313.04 211.44H192.175C188.506 211.44 185.531 214.598 185.531 218.495V250.329C185.531 254.226 188.506 257.384 192.175 257.384H313.04C316.709 257.384 319.683 254.226 319.683 250.329V218.495C319.683 214.598 316.709 211.44 313.04 211.44Z" fill="#BAD977"/>
<path d="M319.683 240.196V254.633C319.683 256.154 316.798 257.385 313.26 257.385H191.962C188.413 257.385 185.539 256.154 185.539 254.633V246.277C193.716 248.577 203.027 250.129 212.575 251.093C224.115 252.257 236.008 252.597 247.852 252.647C262.014 252.708 276.412 252.343 289.743 250.302C301.959 248.438 313.286 244.995 319.683 240.196Z" fill="#A0C158"/>
<path d="M234.034 211.558C221.395 212.466 203.842 211.588 192.935 214.929C187.766 216.509 186.486 219.58 185.654 222.118L185.668 215.013C185.668 214.102 185.741 213.11 187.113 212.413C188.809 211.555 191.791 211.488 194.417 211.491C207.307 211.494 221.398 210.892 234.034 211.558Z" fill="#9BB563"/>
<path d="M312.914 211.496H192.049C188.38 211.496 185.406 214.655 185.406 218.551V250.385C185.406 254.282 188.38 257.441 192.049 257.441H312.914C316.583 257.441 319.557 254.282 319.557 250.385V218.551C319.557 214.655 316.583 211.496 312.914 211.496Z" stroke="#314E5D" stroke-width="2.05279" stroke-miterlimit="10"/>
<path d="M373.622 282.745H235.466C231.797 282.745 228.823 285.904 228.823 289.801V321.635C228.823 325.532 231.797 328.69 235.466 328.69H373.622C377.291 328.69 380.265 325.532 380.265 321.635V289.801C380.265 285.904 377.291 282.745 373.622 282.745Z" fill="#BAD977"/>
<path d="M380.265 311.502V325.939C380.265 327.46 377.019 328.691 373.014 328.691H236.074C232.069 328.691 228.823 327.46 228.823 325.939V317.583C238.054 319.883 248.566 321.435 259.345 322.399C272.358 323.563 285.796 323.903 299.169 323.953C315.151 324.014 331.411 323.649 346.46 321.608C360.257 319.744 373.045 316.301 380.265 311.502Z" fill="#A0C158"/>
<path d="M283.575 282.863C269.308 283.771 249.481 282.894 237.178 286.235C231.338 287.817 229.898 290.888 228.956 293.426L228.975 286.318C228.975 285.407 229.056 284.415 230.606 283.719C232.523 282.86 235.888 282.793 238.851 282.796C253.402 282.799 269.313 282.197 283.575 282.863Z" fill="#4ED9FF"/>
<path d="M373.478 282.802H235.322C231.653 282.802 228.678 285.961 228.678 289.857V321.692C228.678 325.588 231.653 328.747 235.322 328.747H373.478C377.147 328.747 380.121 325.588 380.121 321.692V289.857C380.121 285.961 377.147 282.802 373.478 282.802Z" stroke="#314E5D" stroke-width="2.05279" stroke-miterlimit="10"/>
<path d="M354.876 195.797H211.66C209.363 195.797 207.501 197.775 207.501 200.215V343.286C207.501 345.725 209.363 347.703 211.66 347.703H354.876C357.173 347.703 359.035 345.725 359.035 343.286V200.215C359.035 197.775 357.173 195.797 354.876 195.797Z" fill="white"/>
<path d="M359.691 201.918V224.293H208.159V201.918C208.159 198.197 210.021 195.174 212.318 195.174H355.531C357.829 195.174 359.691 198.197 359.691 201.918Z" fill="#202020"/>
<path d="M354.695 195.543H211.48C209.183 195.543 207.32 197.521 207.32 199.961V344.129C207.32 346.569 209.183 348.547 211.48 348.547H354.695C356.992 348.547 358.855 346.569 358.855 344.129V199.961C358.855 197.521 356.992 195.543 354.695 195.543Z" stroke="#314E5D" stroke-width="2.05279" stroke-miterlimit="10"/>
<path d="M221.598 214.545C223.336 214.545 224.745 213.048 224.745 211.202C224.745 209.355 223.336 207.858 221.598 207.858C219.86 207.858 218.45 209.355 218.45 211.202C218.45 213.048 219.86 214.545 221.598 214.545Z" fill="#FF5F5F"/>
<path d="M231.826 214.545C233.564 214.545 234.973 213.048 234.973 211.202C234.973 209.355 233.564 207.858 231.826 207.858C230.088 207.858 228.678 209.355 228.678 211.202C228.678 213.048 230.088 214.545 231.826 214.545Z" fill="#BAD977"/>
<path d="M242.054 214.545C243.792 214.545 245.201 213.048 245.201 211.202C245.201 209.355 243.792 207.858 242.054 207.858C240.316 207.858 238.906 209.355 238.906 211.202C238.906 213.048 240.316 214.545 242.054 214.545Z" fill="#64BDFF"/>
<path d="M235.453 257.067C235.453 253.879 236.481 252.09 238.453 252.09C240.425 252.09 241.453 253.879 241.453 257.067C241.453 260.254 240.425 262.057 238.453 262.057C236.481 262.057 235.453 260.268 235.453 257.067ZM240.205 257.067C240.205 254.255 239.562 253.11 238.456 253.11C237.349 253.11 236.706 254.255 236.706 257.067C236.706 259.878 237.365 261.037 238.456 261.037C239.547 261.037 240.205 259.887 240.205 257.067ZM238.453 256.158C238.624 256.157 238.792 256.209 238.935 256.309C239.079 256.41 239.19 256.552 239.257 256.721C239.323 256.888 239.341 257.073 239.307 257.252C239.274 257.43 239.192 257.595 239.071 257.723C238.95 257.852 238.795 257.94 238.627 257.975C238.459 258.01 238.285 257.991 238.127 257.92C237.969 257.85 237.834 257.731 237.74 257.579C237.646 257.427 237.596 257.249 237.598 257.067C237.597 256.947 237.619 256.829 237.662 256.718C237.705 256.608 237.767 256.507 237.847 256.423C237.926 256.338 238.021 256.271 238.125 256.226C238.229 256.181 238.341 256.158 238.453 256.158Z" fill="#426372"/>
<path d="M246.302 253.67L244.131 255.064L243.551 254.169L246.436 252.252H247.501V260.851H249.355V261.887H244.081V260.851H246.305V253.67H246.302Z" fill="#426372"/>
<path d="M264.375 253.557L264.955 254.522L260.349 257.514L264.955 260.518L264.323 261.457L259.306 258.13V256.887L264.375 253.557Z" fill="#426372"/>
<path d="M271.66 261.889V257.378H268.369V261.892H267.121V252.26H268.369V256.286H271.658V252.26H272.906V261.892L271.66 261.889Z" fill="#426372"/>
<path d="M278.508 253.378V261.893H277.26V253.378H274.459V252.263H281.354L281.222 253.378H278.508Z" fill="#426372"/>
<path d="M288.177 261.89L287.915 256.956C287.849 255.599 287.85 254.035 287.863 253.726H287.821L286.376 260.165H285.177L283.677 253.721H283.624C283.624 254.041 283.651 255.707 283.598 256.95L283.375 261.885H282.219L282.743 252.252H284.401L285.796 258.683H285.848L287.178 252.252H288.849L289.373 261.885L288.177 261.89Z" fill="#426372"/>
<path d="M291.461 261.889V252.26H292.709V260.722H296.827L296.682 261.881L291.461 261.889Z" fill="#426372"/>
<path d="M304.406 256.885V258.128L299.392 261.455L298.76 260.516L303.365 257.512L298.76 254.52L299.339 253.556L304.406 256.885Z" fill="#426372"/>
<path d="M235.453 273.829C235.453 270.641 236.481 268.852 238.453 268.852C240.425 268.852 241.453 270.641 241.453 273.829C241.453 277.016 240.425 278.828 238.453 278.828C236.481 278.828 235.453 277.028 235.453 273.829ZM240.205 273.829C240.205 271.017 239.562 269.872 238.456 269.872C237.349 269.872 236.706 271.017 236.706 273.829C236.706 276.64 237.365 277.799 238.456 277.799C239.547 277.799 240.205 276.651 240.205 273.829ZM238.453 272.921C238.624 272.919 238.792 272.972 238.935 273.072C239.079 273.172 239.19 273.315 239.257 273.483C239.323 273.651 239.341 273.836 239.307 274.014C239.274 274.193 239.192 274.357 239.071 274.485C238.95 274.614 238.795 274.702 238.627 274.737C238.459 274.772 238.285 274.753 238.127 274.683C237.969 274.612 237.834 274.493 237.74 274.341C237.646 274.189 237.596 274.011 237.598 273.829C237.597 273.709 237.619 273.59 237.661 273.479C237.703 273.369 237.766 273.268 237.846 273.183C237.926 273.098 238.02 273.031 238.124 272.986C238.229 272.94 238.34 272.917 238.453 272.918V272.921Z" fill="#426372"/>
<path d="M244.91 277.574H249.028L248.883 278.649H243.489V277.629C246.62 274.33 247.583 273.001 247.583 271.547C247.595 271.329 247.564 271.111 247.491 270.907C247.418 270.703 247.305 270.518 247.159 270.365C247.013 270.211 246.839 270.092 246.646 270.017C246.454 269.941 246.248 269.91 246.043 269.925C245.293 269.925 244.779 270.22 244.226 270.959L243.384 270.329C244.095 269.393 244.989 268.847 246.109 268.847C247.766 268.847 248.834 269.961 248.834 271.505C248.831 273.185 247.58 274.863 244.91 277.574Z" fill="#426372"/>
<path d="M264.375 270.318L264.954 271.282L260.349 274.275L264.954 277.279L264.322 278.218L259.308 274.891V273.645L264.375 270.318Z" fill="#426372"/>
<path d="M269.778 278.652H267.278V269.02H269.591C271.21 269.02 272.83 269.577 272.83 271.452C272.84 271.938 272.687 272.411 272.399 272.787C272.111 273.164 271.706 273.42 271.257 273.509V273.564C272.164 273.746 273.232 274.306 273.232 275.899C273.211 278.009 271.474 278.652 269.778 278.652ZM269.804 270.068H268.527V273.085H269.909C270.958 273.085 271.543 272.623 271.543 271.533C271.543 270.444 270.884 270.068 269.804 270.068ZM270.001 274.15H268.527V277.577H269.948C270.832 277.577 271.897 277.298 271.897 275.927C271.897 274.556 271.042 274.15 270.001 274.15Z" fill="#426372"/>
<path d="M277.905 278.828C275.681 278.828 274.538 276.858 274.538 273.866C274.538 270.932 275.681 268.85 277.905 268.85C280.129 268.85 281.273 270.851 281.273 273.841C281.275 276.778 280.127 278.828 277.905 278.828ZM277.905 269.951C276.431 269.951 275.839 271.322 275.839 273.852C275.839 276.382 276.471 277.725 277.905 277.725C279.379 277.725 279.969 276.382 279.969 273.824C279.969 271.266 279.379 269.94 277.905 269.94V269.951Z" fill="#426372"/>
<path d="M285.018 278.652H282.899V269.02H284.873C287.019 269.02 289.148 269.789 289.148 273.787C289.148 277.786 286.94 278.652 285.018 278.652ZM285.151 270.084H284.152V277.607H285.164C286.455 277.607 287.821 276.908 287.821 273.793C287.821 270.516 286.376 270.082 285.151 270.082V270.084Z" fill="#426372"/>
<path d="M294.317 274.946V278.652H293.053V274.96L290 269.017H291.382L293.701 273.726H293.743L296.072 269.017H297.383L294.317 274.946Z" fill="#426372"/>
<path d="M304.406 273.644V274.887L299.392 278.214L298.76 277.275L303.365 274.271L298.76 271.279L299.339 270.315L304.406 273.644Z" fill="#426372"/>
<path d="M235.453 290.589C235.453 287.401 236.481 285.612 238.453 285.612C240.425 285.612 241.453 287.401 241.453 290.589C241.453 293.776 240.425 295.579 238.453 295.579C236.481 295.579 235.453 293.79 235.453 290.589ZM240.205 290.589C240.205 287.777 239.562 286.632 238.456 286.632C237.349 286.632 236.706 287.777 236.706 290.589C236.706 293.4 237.365 294.559 238.456 294.559C239.547 294.559 240.205 293.411 240.205 290.589ZM238.453 289.689C238.624 289.687 238.792 289.74 238.935 289.84C239.079 289.94 239.19 290.083 239.257 290.251C239.323 290.419 239.341 290.604 239.307 290.782C239.274 290.961 239.192 291.125 239.071 291.254C238.95 291.382 238.795 291.47 238.627 291.505C238.459 291.54 238.285 291.521 238.127 291.451C237.969 291.38 237.834 291.262 237.74 291.11C237.646 290.958 237.596 290.779 237.598 290.597C237.597 290.478 237.619 290.359 237.662 290.249C237.705 290.138 237.767 290.038 237.847 289.953C237.926 289.869 238.021 289.802 238.125 289.757C238.229 289.711 238.341 289.688 238.453 289.689Z" fill="#426372"/>
<path d="M245.988 295.578C245.456 295.596 244.927 295.488 244.438 295.264C243.95 295.039 243.514 294.703 243.161 294.28L243.948 293.581C244.196 293.883 244.503 294.126 244.848 294.289C245.193 294.453 245.568 294.536 245.946 294.531C247.168 294.531 247.908 293.803 247.908 292.628C247.908 291.285 247.121 290.839 246.072 290.839H245.374L245.519 289.847H245.988C246.856 289.847 247.672 289.331 247.672 288.211C247.672 287.189 246.935 286.629 246.001 286.629C245.214 286.629 244.69 286.924 244.095 287.509L243.436 286.74C244.135 286.009 245.078 285.601 246.059 285.606C247.795 285.606 248.876 286.72 248.876 288.025C248.876 288.551 248.705 289.061 248.391 289.468C248.076 289.874 247.638 290.152 247.153 290.254V290.309C247.71 290.337 248.235 290.599 248.612 291.036C248.989 291.473 249.189 292.051 249.167 292.644C249.172 294.305 247.895 295.578 245.988 295.578Z" fill="#426372"/>
<path d="M264.375 287.077L264.955 288.041L260.349 291.034L264.955 294.038L264.32 294.982L259.306 291.638V290.396L264.375 287.077Z" fill="#426372"/>
<path d="M271.66 295.412V290.898H268.369V295.412H267.121V285.787H268.369V289.814H271.658V285.787H272.906V295.42H271.658L271.66 295.412Z" fill="#426372"/>
<path d="M276.672 286.838V289.984H280.013V291.045H276.672V294.358H280.766V295.406H275.431V285.787H280.677L280.532 286.849L276.672 286.838Z" fill="#426372"/>
<path d="M287.506 292.993H284.015L283.318 295.412H282.069L285.004 285.787H286.578L289.523 295.412H288.211L287.506 292.993ZM284.322 291.917H287.207L285.799 286.983H285.746L284.322 291.917Z" fill="#426372"/>
<path d="M292.909 295.412H290.79V285.787H292.765C294.91 285.787 297.04 286.557 297.04 290.555C297.04 294.553 294.829 295.412 292.909 295.412ZM293.04 286.841H292.041V294.364H293.053C294.344 294.364 295.71 293.665 295.71 290.549C295.713 287.275 294.278 286.838 293.04 286.838V286.841Z" fill="#426372"/>
<path d="M300.352 286.838V289.984H303.685V291.045H300.352V294.358H304.446V295.406H299.104V285.787H304.349L304.205 286.849L300.352 286.838Z" fill="#426372"/>
<path d="M310.454 291.162L313.111 295.412H311.624L309.193 291.33H308.036V295.412H306.788V285.787H309.169C311.433 285.787 312.616 286.707 312.616 288.513C312.623 289.945 311.677 290.825 310.454 291.162ZM309.295 286.813H308.047V290.307H309.311C310.575 290.307 311.296 289.805 311.296 288.504C311.291 287.3 310.649 286.813 309.293 286.813H309.295Z" fill="#426372"/>
<path d="M320.187 290.406V291.638L315.173 294.982L314.541 294.043L319.146 291.039L314.541 288.046L315.12 287.082L320.187 290.406Z" fill="#426372"/>
<path d="M235.453 307.348C235.453 304.161 236.481 302.372 238.453 302.372C240.425 302.372 241.451 304.172 241.451 307.348C241.451 310.525 240.423 312.339 238.45 312.339C236.478 312.339 235.453 310.55 235.453 307.348ZM240.205 307.348C240.205 304.537 239.562 303.392 238.456 303.392C237.349 303.392 236.706 304.537 236.706 307.348C236.706 310.16 237.365 311.319 238.456 311.319C239.547 311.319 240.205 310.171 240.205 307.348ZM238.453 306.44C238.624 306.439 238.792 306.492 238.935 306.592C239.077 306.693 239.189 306.836 239.255 307.004C239.321 307.172 239.338 307.357 239.305 307.535C239.271 307.713 239.189 307.877 239.068 308.006C238.946 308.134 238.792 308.221 238.624 308.256C238.456 308.291 238.282 308.272 238.124 308.202C237.966 308.131 237.831 308.012 237.737 307.86C237.643 307.708 237.594 307.53 237.595 307.348C237.595 307.228 237.616 307.11 237.659 306.999C237.702 306.888 237.765 306.788 237.845 306.703C237.925 306.619 238.02 306.552 238.124 306.507C238.229 306.462 238.34 306.439 238.453 306.44Z" fill="#426372"/>
<path d="M248.186 309.865V312.172H247.016V309.865H243.305V308.956L245.962 302.369L246.974 302.818L244.577 308.845H247.011L247.131 306.337H248.18V308.845H249.324V309.868L248.186 309.865Z" fill="#426372"/>
<path d="M264.375 303.837L264.954 304.801L260.349 307.794L264.954 310.798L264.322 311.737L259.308 308.41V307.167L264.375 303.837Z" fill="#426372"/>
<path d="M267.7 313.622L266.725 313.16L272.342 300.848L273.305 301.338L267.7 313.622Z" fill="#426372"/>
<path d="M279.557 312.171V307.657H276.258V312.171H275.01V302.539H276.258V306.565H279.557V302.539H280.806V312.171H279.557Z" fill="#426372"/>
<path d="M284.572 303.614V306.76H287.913V307.822H284.572V311.135H288.666V312.183H283.323V302.539H288.568L288.424 303.6L284.572 303.614Z" fill="#426372"/>
<path d="M295.395 309.744H291.907L291.209 312.163H289.961L292.895 302.53H294.469L297.404 312.163H296.092L295.395 309.744ZM292.211 308.669H295.096L293.687 303.734H293.632L292.211 308.669Z" fill="#426372"/>
<path d="M300.8 312.171H298.681V302.539H300.656C302.801 302.539 304.931 303.308 304.931 307.306C304.931 311.305 302.723 312.171 300.8 312.171ZM300.931 303.614H299.932V311.138H300.944C302.235 311.138 303.601 310.438 303.601 307.323C303.601 304.035 302.167 303.614 300.931 303.614Z" fill="#426372"/>
<path d="M308.24 303.614V306.76H311.582V307.822H308.24V311.135H312.339V312.183H306.992V302.539H312.237L312.077 303.614H308.24Z" fill="#426372"/>
<path d="M318.343 307.919L320.994 312.171H319.507L317.086 308.089H315.927V312.171H314.679V302.539H317.06C319.323 302.539 320.506 303.458 320.506 305.264C320.514 306.705 319.567 307.585 318.343 307.919ZM317.186 303.573H315.938V307.07H317.202C318.466 307.07 319.187 306.568 319.187 305.267C319.184 304.063 318.539 303.573 317.183 303.573H317.186Z" fill="#426372"/>
<path d="M328.075 307.167V308.41L323.061 311.737L322.429 310.798L327.026 307.794L322.421 304.801L323 303.837L328.075 307.167Z" fill="#426372"/>
</g>
<path d="M505.016 105.344C505.016 100.489 503.3 95.8324 500.248 92.3992C497.192 88.9655 493.052 87.0367 488.732 87.0367C488.371 87.0367 488.013 87.0367 487.66 87.0764C487.683 86.679 487.695 86.2772 487.695 85.8709C487.695 83.2692 487.2 80.697 486.246 78.3266C485.291 75.9558 483.901 73.8411 482.161 72.1234C480.421 70.4057 478.378 69.1242 476.163 68.3647C473.952 67.6048 471.619 67.3844 469.325 67.7178C467.027 68.0517 464.824 68.9313 462.852 70.2984C460.884 71.6659 459.196 73.4896 457.903 75.6476C456.611 77.806 455.743 80.2493 455.354 82.8144C454.969 85.3799 455.071 88.0086 455.661 90.5251C453.693 88.9209 451.43 87.832 449.038 87.3387C446.647 86.8455 444.188 86.9607 441.843 87.6757C439.494 88.3901 437.322 89.6866 435.476 91.4697C433.634 93.2527 432.173 95.4769 431.191 97.9789C430.213 100.481 429.746 103.198 429.824 105.93C429.903 108.662 430.523 111.339 431.643 113.767C432.758 116.193 434.345 118.308 436.285 119.955C438.226 121.603 440.468 122.741 442.852 123.286C443.826 126.186 445.437 128.761 447.538 130.77C449.636 132.778 452.157 134.154 454.859 134.77C457.558 135.385 460.358 135.219 462.986 134.287C465.613 133.355 467.99 131.687 469.891 129.441C471.835 131.091 474.082 132.229 476.47 132.772C478.858 133.316 481.32 133.251 483.681 132.581C486.045 131.912 488.241 130.655 490.114 128.905C491.988 127.154 493.484 124.953 494.502 122.464C497.593 121.147 500.252 118.804 502.133 115.746C504.011 112.688 505.016 109.061 505.016 105.344Z" fill="white"/>
<path d="M119.355 100.17C119.355 96.1571 117.638 92.3081 114.587 89.4704C111.531 86.6324 107.391 85.0382 103.071 85.0382C102.709 85.0382 102.352 85.0382 101.998 85.071C102.022 84.7426 102.034 84.4104 102.034 84.0747C102.034 81.9242 101.539 79.7982 100.584 77.8391C99.6298 75.8795 98.2395 74.1316 96.4995 72.7119C94.7595 71.2921 92.7171 70.233 90.5019 69.6052C88.2906 68.9771 85.9575 68.795 83.6637 69.0706C81.366 69.3465 79.1626 70.0735 77.1909 71.2035C75.2231 72.3338 73.5342 73.8411 72.242 75.6248C70.9497 77.4088 70.0817 79.4282 69.6929 81.5483C69.308 83.6688 69.41 85.8415 69.9992 87.9215C68.0314 86.5955 65.7691 85.6955 63.3771 85.2878C60.9851 84.8802 58.5264 84.9754 56.1816 85.5663C53.8328 86.1568 51.6607 87.2284 49.8147 88.7022C47.9726 90.1759 46.5115 92.0143 45.5296 94.0823C44.5516 96.1506 44.0842 98.3959 44.1628 100.654C44.2413 102.912 44.8619 105.125 45.9813 107.131C47.0967 109.137 48.6836 110.885 50.6238 112.246C52.5641 113.608 54.8068 114.549 57.191 114.999C58.165 117.396 59.7754 119.525 61.8767 121.185C63.9741 122.845 66.4957 123.982 69.198 124.491C71.8963 124.999 74.6968 124.862 77.3244 124.092C79.952 123.321 82.3283 121.943 84.2293 120.087C86.1735 121.45 88.4201 122.391 90.8082 122.84C93.1962 123.289 95.659 123.235 98.0195 122.682C100.384 122.129 102.58 121.09 104.453 119.643C106.327 118.196 107.823 116.377 108.84 114.32C111.931 113.231 114.59 111.295 116.472 108.767C118.349 106.24 119.355 103.242 119.355 100.17Z" fill="white"/>
<defs>
<filter id="filter0_d_255_181" x="413.122" y="373.926" width="77.1764" height="7.85837" filterUnits="userSpaceOnUse" color-interpolation-filters="sRGB">
<feFlood flood-opacity="0" result="BackgroundImageFix"/>
<feColorMatrix in="SourceAlpha" type="matrix" values="0 0 0 0 0 0 0 0 0 0 0 0 0 0 0 0 0 0 127 0" result="hardAlpha"/>
<feOffset dx="0.703835" dy="0.703835"/>
<feGaussianBlur stdDeviation="0.703835"/>
<feComposite in2="hardAlpha" operator="out"/>
<feColorMatrix type="matrix" values="0 0 0 0 0 0 0 0 0 0 0 0 0 0 0 0 0 0 0.25 0"/>
<feBlend mode="normal" in2="BackgroundImageFix" result="effect1_dropShadow_255_181"/>
<feBlend mode="normal" in="SourceGraphic" in2="effect1_dropShadow_255_181" result="shape"/>
</filter>
<filter id="filter1_d_255_181" x="44.1405" y="373.926" width="78.1177" height="7.85837" filterUnits="userSpaceOnUse" color-interpolation-filters="sRGB">
<feFlood flood-opacity="0" result="BackgroundImageFix"/>
<feColorMatrix in="SourceAlpha" type="matrix" values="0 0 0 0 0 0 0 0 0 0 0 0 0 0 0 0 0 0 127 0" result="hardAlpha"/>
<feOffset dx="0.703835" dy="0.703835"/>
<feGaussianBlur stdDeviation="0.703835"/>
<feComposite in2="hardAlpha" operator="out"/>
<feColorMatrix type="matrix" values="0 0 0 0 0 0 0 0 0 0 0 0 0 0 0 0 0 0 0.25 0"/>
<feBlend mode="normal" in2="BackgroundImageFix" result="effect1_dropShadow_255_181"/>
<feBlend mode="normal" in="SourceGraphic" in2="effect1_dropShadow_255_181" result="shape"/>
</filter>
<filter id="filter2_d_255_181" x="80.8505" y="355.771" width="388.74" height="27.0218" filterUnits="userSpaceOnUse" color-interpolation-filters="sRGB">
<feFlood flood-opacity="0" result="BackgroundImageFix"/>
<feColorMatrix in="SourceAlpha" type="matrix" values="0 0 0 0 0 0 0 0 0 0 0 0 0 0 0 0 0 0 127 0" result="hardAlpha"/>
<feOffset dx="0.703835" dy="0.703835"/>
<feGaussianBlur stdDeviation="0.703835"/>
<feComposite in2="hardAlpha" operator="out"/>
<feColorMatrix type="matrix" values="0 0 0 0 0 0 0 0 0 0 0 0 0 0 0 0 0 0 0.25 0"/>
<feBlend mode="normal" in2="BackgroundImageFix" result="effect1_dropShadow_255_181"/>
<feBlend mode="normal" in="SourceGraphic" in2="effect1_dropShadow_255_181" result="shape"/>
</filter>
<linearGradient id="paint0_linear_255_181" x1="-0.00326595" y1="193.456" x2="553.994" y2="193.456" gradientUnits="userSpaceOnUse">
<stop stop-color="#CC6AD9" stop-opacity="0.77"/>
<stop offset="0.9998" stop-color="#9D33C4"/>
<stop offset="0.9999" stop-color="#992FC2" stop-opacity="0.29"/>
<stop offset="1" stop-color="#9126BF"/>
</linearGradient>
</defs>
</svg>
