<svg width="23" height="22" viewBox="0 0 23 22" fill="none" xmlns="http://www.w3.org/2000/svg">
<path d="M11.9137 6.875C11.0978 6.875 10.3003 7.11693 9.62197 7.57019C8.94362 8.02345 8.4149 8.66769 8.10269 9.42143C7.79048 10.1752 7.70879 11.0046 7.86796 11.8047C8.02712 12.6049 8.41999 13.3399 8.99688 13.9168C9.57377 14.4937 10.3088 14.8866 11.1089 15.0457C11.9091 15.2049 12.7385 15.1232 13.4923 14.811C14.246 14.4988 14.8902 13.9701 15.3435 13.2917C15.7968 12.6134 16.0387 11.8158 16.0387 11C16.0387 9.90598 15.6041 8.85677 14.8305 8.08318C14.0569 7.3096 13.0077 6.875 11.9137 6.875ZM11.9137 13.75C11.3698 13.75 10.8381 13.5887 10.3859 13.2865C9.93364 12.9844 9.58117 12.5549 9.37303 12.0524C9.16489 11.5499 9.11043 10.9969 9.21654 10.4635C9.32265 9.93005 9.58456 9.44005 9.96915 9.05546C10.3537 8.67086 10.8438 8.40895 11.3772 8.30284C11.9106 8.19673 12.4636 8.25119 12.9661 8.45933C13.4686 8.66747 13.8981 9.01995 14.2002 9.47218C14.5024 9.92442 14.6637 10.4561 14.6637 11C14.6614 11.7286 14.371 12.4268 13.8557 12.942C13.3405 13.4573 12.6423 13.7477 11.9137 13.75ZM15.6949 2.40625H8.13245C6.85609 2.40625 5.63201 2.91328 4.72949 3.8158C3.82698 4.71832 3.31995 5.9424 3.31995 7.21875V14.7812C3.31995 16.0576 3.82698 17.2817 4.72949 18.1842C5.63201 19.0867 6.85609 19.5938 8.13245 19.5938H15.6949C16.9713 19.5938 18.1954 19.0867 19.0979 18.1842C20.0004 17.2817 20.5074 16.0576 20.5074 14.7812V7.21875C20.5074 5.9424 20.0004 4.71832 19.0979 3.8158C18.1954 2.91328 16.9713 2.40625 15.6949 2.40625ZM19.1324 14.7812C19.1324 15.2327 19.0435 15.6797 18.8708 16.0967C18.698 16.5138 18.4448 16.8927 18.1256 17.2119C17.8064 17.5311 17.4275 17.7843 17.0104 17.9571C16.5934 18.1298 16.1464 18.2188 15.6949 18.2188H8.13245C7.68103 18.2188 7.23403 18.1298 6.81697 17.9571C6.39992 17.7843 6.02097 17.5311 5.70177 17.2119C5.38257 16.8927 5.12936 16.5138 4.95661 16.0967C4.78386 15.6797 4.69495 15.2327 4.69495 14.7812V7.21875C4.69495 6.30707 5.05711 5.43273 5.70177 4.78807C6.34642 4.14341 7.22076 3.78125 8.13245 3.78125H15.6949C16.1464 3.78125 16.5934 3.87016 17.0104 4.04291C17.4275 4.21566 17.8064 4.46887 18.1256 4.78807C18.4448 5.10727 18.698 5.48622 18.8708 5.90328C19.0435 6.32033 19.1324 6.76733 19.1324 7.21875V14.7812ZM17.4137 6.53125C17.4137 6.73521 17.3532 6.93459 17.2399 7.10418C17.1266 7.27377 16.9655 7.40595 16.7771 7.484C16.5887 7.56205 16.3813 7.58248 16.1813 7.54268C15.9812 7.50289 15.7975 7.40468 15.6532 7.26045C15.509 7.11623 15.4108 6.93248 15.371 6.73244C15.3312 6.53239 15.3516 6.32504 15.4297 6.13661C15.5077 5.94817 15.6399 5.78711 15.8095 5.6738C15.9791 5.56048 16.1785 5.5 16.3824 5.5C16.656 5.5 16.9183 5.60865 17.1116 5.80205C17.305 5.99544 17.4137 6.25775 17.4137 6.53125Z" fill="currentColors"/>
</svg>
