<svg width="69" height="69" viewBox="0 0 69 69" fill="none" xmlns="http://www.w3.org/2000/svg">
<path d="M31.625 12.9375H15.8125C14.6688 12.9375 13.5719 13.3919 12.7631 14.2006C11.9544 15.0094 11.5 16.1063 11.5 17.25V47.4375H57.5V31.625" stroke="#9126BF" stroke-width="3.52041" stroke-linecap="round" stroke-linejoin="round"/>
<g filter="url(#filter0_d_57_22)">
<path d="M5.63269 47.1735H63.3674V49.2857C63.3674 50.9663 62.455 52.5781 60.8309 53.7665C59.2068 54.9549 57.004 55.6225 54.7072 55.6225H14.2929C11.9961 55.6225 9.79331 54.9549 8.16921 53.7665C6.5451 52.5781 5.63269 50.9663 5.63269 49.2857V47.1735Z" stroke="#9126BF" stroke-width="3.52041" stroke-linejoin="round" shape-rendering="crispEdges"/>
</g>
<path d="M47.4375 10.0625L41.6875 15.8125L47.4375 21.5625M56.0625 10.0625L61.8125 15.8125L56.0625 21.5625" stroke="#BAD977" stroke-width="3.52041" stroke-linecap="round" stroke-linejoin="round"/>
<defs>
<filter id="filter0_d_57_22" x="3.16835" y="44.7092" width="64.0715" height="14.7857" filterUnits="userSpaceOnUse" color-interpolation-filters="sRGB">
<feFlood flood-opacity="0" result="BackgroundImageFix"/>
<feColorMatrix in="SourceAlpha" type="matrix" values="0 0 0 0 0 0 0 0 0 0 0 0 0 0 0 0 0 0 127 0" result="hardAlpha"/>
<feOffset dx="0.704082" dy="0.704082"/>
<feGaussianBlur stdDeviation="0.704082"/>
<feComposite in2="hardAlpha" operator="out"/>
<feColorMatrix type="matrix" values="0 0 0 0 0 0 0 0 0 0 0 0 0 0 0 0 0 0 0.25 0"/>
<feBlend mode="normal" in2="BackgroundImageFix" result="effect1_dropShadow_57_22"/>
<feBlend mode="normal" in="SourceGraphic" in2="effect1_dropShadow_57_22" result="shape"/>
</filter>
</defs>
</svg>
