<svg width="622" height="503" viewBox="0 0 672 543" fill="none" xmlns="http://www.w3.org/2000/svg">
<g id="Group 8">
<g id="background">
<path id="SHAPE 45" d="M79.1202 137.495C92.4935 137.495 103.335 126.654 103.335 113.281C103.335 99.9077 92.4935 89.0665 79.1202 89.0665C65.747 89.0665 54.9058 99.9077 54.9058 113.281C54.9058 126.654 65.747 137.495 79.1202 137.495Z" fill="#9126BF" fill-opacity="0.31"/>
<path id="SHAPE 28" d="M642.21 377.71H531.753C520.523 377.71 511.399 368.586 511.399 357.356C511.399 346.126 520.523 337.002 531.753 337.002H593.43C606.765 337.002 617.557 326.21 617.557 312.875C617.557 299.539 606.765 288.748 593.43 288.748H538.596C523.594 288.748 511.399 276.553 511.399 261.551C511.399 246.548 523.594 234.353 538.596 234.353H599.571C612.907 234.353 623.786 223.474 623.786 210.139C623.786 196.803 612.907 185.924 599.571 185.924H511.487H490.431C477.095 185.924 466.216 175.045 466.216 161.71C466.216 148.374 477.095 137.495 490.431 137.495H514.294C527.63 137.495 538.509 126.616 538.509 113.281C538.509 99.9455 527.63 89.0665 514.294 89.0665H500.695H498.414H354.268H349.355H198.804H164.325C150.989 89.0665 140.111 99.9455 140.111 113.281C140.111 126.616 150.989 137.495 164.325 137.495H174.59C187.925 137.495 198.804 148.374 198.804 161.71C198.804 175.045 187.925 185.924 174.59 185.924H82.2063C71.9415 185.924 63.6068 194.259 63.6068 204.524C63.6068 214.789 71.9415 223.123 82.2063 223.123H179.503C190.206 223.123 198.892 231.809 198.892 242.512C198.892 253.216 190.206 261.902 179.503 261.902H24.2145C10.879 261.902 0 272.781 0 286.116C0 299.452 10.879 310.331 24.2145 310.331H174.59C187.925 310.331 198.804 321.21 198.804 334.545C198.804 347.881 187.925 358.759 174.59 358.759H83.7856C62.3786 358.759 45.0073 376.131 45.0073 397.538C45.0073 418.945 62.3786 436.316 83.7856 436.316H198.804H249.865H278.554H511.487H642.21C658.353 436.316 671.425 423.244 671.425 407.101C671.425 390.782 658.353 377.71 642.21 377.71Z" fill="#9126BF" fill-opacity="0.28"/>
</g>
<path id="floor" opacity="0.34" d="M602.291 543H59.0448C52.1139 543 46.4989 537.385 46.4989 530.454C46.4989 523.523 52.1139 517.908 59.0448 517.908H602.291C609.222 517.908 614.837 523.523 614.837 530.454C614.837 537.385 609.222 543 602.291 543Z" fill="#BAD977"/>
<path id="SHAPE 114" d="M437.271 530.475H453.063V292.893H437.271V530.475Z" fill="#2F262D"/>
<path id="SHAPE 85" d="M377.167 340.774C374.623 335.071 377.167 328.316 382.957 325.684C384.449 325.07 386.028 324.719 387.607 324.719C392.081 324.719 396.205 327.351 398.047 331.474L454.197 457.986L433.316 467.286L377.167 340.774Z" fill="#FC9F6F"/>
<path id="SHAPE 7" d="M283.296 530.475H299.088V292.893H283.296V530.475Z" fill="#2F262D"/>
<path id="SHAPE 80" d="M356.374 308.4C302.067 308.4 258.112 266.989 258.112 216.016C258.112 202.856 261.095 190.31 266.359 178.905C231.792 193.205 207.665 225.755 207.665 263.48C207.665 314.541 251.62 355.863 305.927 355.863C346.197 355.863 380.764 333.14 395.942 300.591C383.747 305.592 370.411 308.4 356.374 308.4Z" fill="#F2F2F2"/>
<path id="SHAPE 15" d="M301.979 333.404C331.681 333.404 355.76 311.289 355.76 284.01C355.76 256.731 331.681 234.616 301.979 234.616C272.277 234.616 248.198 256.731 248.198 284.01C248.198 311.289 272.277 333.404 301.979 333.404Z" fill="#3B323A"/>
<path id="SHAPE 4" d="M205.121 292.872H84.8385C80.2763 292.872 76.5038 289.099 76.5038 284.537V276.641C76.5038 272.079 80.2763 268.306 84.8385 268.306H205.121C209.683 268.306 213.456 272.079 213.456 276.641V284.537C213.456 289.099 209.683 292.872 205.121 292.872Z" fill="#AFAFAF"/>
<path id="SHAPE 19" d="M348.566 246.373C331.721 246.373 318.034 232.686 318.034 215.841V185.31C318.034 173.642 308.647 164.254 296.978 164.254V215.841C296.978 244.355 320.052 267.429 348.566 267.429H391.292V246.373H348.566Z" fill="#EF9067"/>
<path id="SHAPE 8" d="M355.497 85.2062C352.338 125.125 317.245 169.343 284.432 163.728C253.024 158.376 231.441 108.807 242.057 74.0641C248.637 52.6571 266.71 39.2338 281.274 28.4426C296.364 17.2127 306.541 9.66764 318.122 11.51C341.108 15.0194 358.041 53.4467 355.497 85.2062Z" fill="#F2B07A"/>
<path id="SHAPE 30" d="M311.191 198.821C310.577 198.119 305.664 192.417 304.786 191.627C302.505 182.24 297.856 171.887 298.821 159.78C292.241 154.954 281.362 148.813 268.991 149.69C265.306 149.954 261.446 150.831 259.516 151.27C248.812 153.726 242.057 157.674 239.864 158.99C236.881 160.833 235.389 161.71 233.635 163.465C228.897 168.378 227.756 174.344 227.142 177.853C221.878 208.384 226.002 237.687 226.528 240.231C227.493 244.881 228.809 249.005 228.809 249.005C231.003 255.936 233.635 260.235 234.336 262.165C237.846 271.64 245.83 291.556 254.252 306.733C260.393 307.699 274.343 313.84 283.555 310.681C297.592 305.856 326.544 295.065 336.897 292.872C324 278.396 312.156 262.253 309.085 242.6C308.296 237.512 307.594 232.511 307.068 227.598C308.296 226.984 315.753 223.211 317.245 215.666C318.824 207.507 312.419 200.225 311.191 198.821Z" fill="#DA53F0"/>
<path id="SHAPE 48" d="M279.509 180.302C287.163 178.168 291.352 169.211 288.866 160.297C286.381 151.383 278.16 145.887 270.506 148.022C262.852 150.155 258.663 159.112 261.149 168.027C263.634 176.94 271.855 182.437 279.509 180.302Z" fill="#EF9067"/>
<path id="SHAPE 20" d="M272.764 144.251C277.589 155.656 285.573 159.604 290.661 162.587C300.575 168.378 319.175 167.851 319.175 167.851C319.789 163.815 320.403 160.306 323.561 153.638C328.124 143.725 332.335 141.356 338.213 132.407C346.986 118.896 351.373 102.577 348.565 100.998C346.548 99.77 341.02 106.087 337.423 109.772C327.158 120.3 304.172 135.916 272.764 144.251Z" fill="#F2B07A"/>
<path id="SHAPE 10" d="M272.413 169.343H268.728C260.656 169.343 254.164 162.85 254.164 154.779V99.419H283.292V158.376C283.292 164.43 278.379 169.343 272.413 169.343Z" fill="#EF9067"/>
<path id="SHAPE 5" d="M95.4238 530.475H111.216V292.893H95.4238V530.475Z" fill="#2F262D"/>
<path id="SHAPE 96" d="M205.555 530.475H221.347V292.893H205.555V530.475Z" fill="#494149"/>
<path id="SHAPE 102" d="M532.323 530.475H548.116V292.893H532.323V530.475Z" fill="#494149"/>
<path id="SHAPE 27" opacity="0.71" d="M254.164 105.297C256.094 122.054 267.675 135.916 283.292 141.18V96.0852H254.164V105.297Z" fill="#D36B46"/>
<path id="SHAPE 6" d="M296.978 138.986C275.571 138.986 258.288 121.703 258.288 100.296V53.0949C258.288 51.077 259.867 49.4978 261.885 49.4978H316.894C327.246 49.4978 335.669 57.9202 335.669 68.2728V100.296C335.669 121.703 318.385 138.986 296.978 138.986Z" fill="#FC9F6F"/>
<path id="SHAPE 36" opacity="0.6" d="M282.327 107.665V60.4645C282.327 58.4466 283.906 56.8674 285.924 56.8674L317.683 45.7253C314.262 41.2508 322.947 49.5855 316.894 49.5855H261.885C259.867 49.5855 258.288 51.1647 258.288 53.1826V100.383C258.288 121.79 275.571 139.074 296.978 139.074C297.417 139.074 297.856 139.074 298.382 139.074C288.644 131.967 282.327 120.562 282.327 107.665Z" fill="#EF9067"/>
<path id="SHAPE 17" d="M307.068 119.51C302.154 119.51 298.206 115.562 298.206 110.737V106.613H315.753V110.737C315.753 115.562 311.893 119.51 307.068 119.51Z" fill="#FCFAFA"/>
<path id="SHAPE 11" d="M291.188 85.9072H299.084" stroke="#161515" stroke-width="2.63201" stroke-miterlimit="10" stroke-linecap="round" stroke-linejoin="round"/>
<path id="SHAPE 22" d="M321.017 85.9072H328.913" stroke="#161515" stroke-width="2.63201" stroke-miterlimit="10" stroke-linecap="round" stroke-linejoin="round"/>
<path id="SHAPE 23" d="M313.209 13.9666C302.593 0.280135 284.52 0.543338 281.186 0.192404C278.203 -0.421731 261.797 0.367874 249.777 3.52628C222.054 10.8959 202.752 35.9877 202.752 64.7643V101.612C202.752 126.353 221.001 156.358 244.426 164.166C257.41 168.553 271.799 171.887 275.22 171.361C257.849 139.162 260.218 120.124 265.131 108.982C276.887 81.7846 311.366 82.7497 319.877 52.4816C320.052 51.6043 325.404 29.7586 313.209 13.9666Z" fill="#F2B07A"/>
<path id="SHAPE 32" d="M421.472 267.166C422.349 264.885 422.788 262.428 422.788 259.884C422.788 248.215 413.401 238.828 401.732 238.828C390.064 238.828 380.676 248.215 380.676 259.884C380.676 262.428 381.115 264.885 381.992 267.166H421.472Z" fill="#EF9067"/>
<path id="SHAPE 42" d="M353.917 268.306C352.163 260.235 342.424 254.093 330.58 254.093C318.824 254.093 308.998 260.235 307.243 268.306H353.917Z" fill="#F4EFF0"/>
<path id="SHAPE 16" d="M238.372 206.893C245.446 206.893 251.181 197.897 251.181 186.802C251.181 175.706 245.446 166.711 238.372 166.711C231.298 166.711 225.563 175.706 225.563 186.802C225.563 197.897 231.298 206.893 238.372 206.893Z" fill="#EF9067"/>
<path id="SHAPE 24" d="M277.15 247.075C260.306 247.075 246.619 233.388 246.619 216.543V179.257C246.619 173.466 241.881 168.729 236.091 168.729C230.301 168.729 225.563 173.466 225.563 179.257V216.543C225.563 245.057 248.637 268.131 277.15 268.131H319.877V247.075H298.47H277.15Z" fill="#FC9F6F"/>
<path id="SHAPE 33" d="M454.548 268.306H356.286C355.058 268.306 354.005 267.253 354.005 266.025C354.005 264.797 355.058 263.744 356.286 263.744H454.635C455.864 263.744 456.916 264.797 456.916 266.025C456.916 267.253 455.864 268.306 454.548 268.306Z" fill="white"/>
<path id="SHAPE 76" d="M454.548 266.024H356.286C355.409 266.024 354.707 265.586 354.268 264.884C354.093 265.235 353.917 265.586 353.917 266.024C353.917 267.252 354.97 268.305 356.198 268.305H454.548C455.776 268.305 456.829 267.252 456.829 266.024C456.829 265.586 456.741 265.235 456.478 264.884C456.127 265.498 455.425 266.024 454.548 266.024Z" fill="#F4EFF0"/>
<path id="SHAPE 70" d="M375.324 268.306H356.286C355.058 268.306 354.005 267.253 354.005 266.025C354.005 264.797 355.058 263.744 356.286 263.744H375.324C376.552 263.744 377.605 264.797 377.605 266.025C377.605 267.253 376.64 268.306 375.324 268.306Z" fill="#F4EFF0"/>
<g id="SHAPE 37">
<g id="SHAPE 148">
<path id="SHAPE 150" d="M447.617 263.744H440.422V262.077C440.422 261.2 441.124 260.41 442.089 260.41H445.95C446.827 260.41 447.617 261.112 447.617 262.077V263.744Z" fill="#F4EFF0"/>
</g>
<g id="SHAPE 145">
<path id="SHAPE 147" d="M438.843 263.744H431.649V262.077C431.649 261.2 432.351 260.41 433.316 260.41H437.176C438.054 260.41 438.843 261.112 438.843 262.077V263.744Z" fill="#F4EFF0"/>
</g>
<g id="SHAPE 142">
<path id="SHAPE 144" d="M430.07 263.744H422.876V262.077C422.876 261.2 423.578 260.41 424.543 260.41H428.403C429.28 260.41 430.07 261.112 430.07 262.077V263.744Z" fill="#F4EFF0"/>
</g>
<g id="SHAPE 139">
<path id="SHAPE 141" d="M421.297 263.744H414.103V262.077C414.103 261.2 414.804 260.41 415.769 260.41H419.63C420.507 260.41 421.297 261.112 421.297 262.077V263.744Z" fill="#F4EFF0"/>
</g>
<g id="SHAPE 136">
<path id="SHAPE 138" d="M412.523 263.744H405.329V262.077C405.329 261.2 406.031 260.41 406.996 260.41H410.856C411.734 260.41 412.523 261.112 412.523 262.077V263.744Z" fill="#F4EFF0"/>
</g>
<g id="SHAPE 133">
<path id="SHAPE 135" d="M403.75 263.744H396.556V262.077C396.556 261.2 397.258 260.41 398.223 260.41H402.083C402.96 260.41 403.75 261.112 403.75 262.077V263.744Z" fill="#F4EFF0"/>
</g>
<g id="SHAPE 130">
<path id="SHAPE 132" d="M394.977 263.744H387.782V262.077C387.782 261.2 388.484 260.41 389.449 260.41H393.31C394.187 260.41 394.977 261.112 394.977 262.077V263.744Z" fill="#F4EFF0"/>
</g>
<g id="SHAPE 127">
<path id="SHAPE 129" d="M386.203 263.744H379.009V262.077C379.009 261.2 379.711 260.41 380.676 260.41H384.536C385.414 260.41 386.203 261.112 386.203 262.077V263.744Z" fill="#F4EFF0"/>
</g>
<g id="SHAPE 124">
<path id="SHAPE 126" d="M377.43 263.744H370.236V262.077C370.236 261.2 370.938 260.41 371.903 260.41H375.763C376.64 260.41 377.43 261.112 377.43 262.077V263.744Z" fill="#F4EFF0"/>
</g>
<g id="SHAPE 121">
<path id="SHAPE 123" d="M368.656 263.744H361.462V262.077C361.462 261.2 362.164 260.41 363.129 260.41H366.989C367.867 260.41 368.656 261.112 368.656 262.077V263.744Z" fill="#F4EFF0"/>
</g>
</g>
<path id="SHAPE 74" d="M356.286 268.306H375.324C376.552 268.306 377.605 267.253 377.605 266.025H353.917C353.917 267.253 354.97 268.306 356.286 268.306Z" fill="#E2E2E2"/>
<path id="SHAPE 71" d="M364.796 339.546H295.399L294.873 302.698H380.851C386.642 302.698 391.292 307.348 391.292 313.138C391.204 327.79 379.36 339.546 364.796 339.546Z" fill="#352934"/>
<path id="SHAPE 100" d="M308.998 473.164L351.548 329.281C352.952 324.456 357.427 321.122 362.515 321.122C363.568 321.122 364.708 321.297 365.761 321.56C371.815 323.315 375.236 329.72 373.482 335.773L330.931 479.656L308.998 473.164Z" fill="#EF9067"/>
<path id="SHAPE 72" d="M344.354 461.408L308.998 450.967L353.566 300.329C356.461 290.59 366.726 284.976 376.465 287.871C386.203 290.766 391.818 301.031 388.923 310.769L344.354 461.408Z" fill="#352934"/>
<g id="SHAPE 31">
<path id="SHAPE 25" d="M519.997 225.668H372.605C369.709 225.668 367.341 223.299 367.341 220.404L385.589 115.123C385.589 112.228 387.958 109.859 390.853 109.859H538.246C541.141 109.859 543.51 112.228 543.51 115.123L525.261 220.404C525.261 223.299 522.98 225.668 519.997 225.668Z" fill="#CECECE"/>
<path id="SHAPE 26" d="M528.77 225.668H381.378C378.483 225.668 376.114 223.299 376.114 220.404L394.362 115.123C394.362 112.228 396.731 109.859 399.626 109.859H547.019C549.914 109.859 552.283 112.228 552.283 115.123L534.034 220.404C534.034 223.299 531.753 225.668 528.77 225.668Z" fill="#F4EFF0"/>
<path id="SHAPE 41" d="M483.763 262.603L471.656 201.278H450.073C447.441 201.278 445.423 203.734 445.95 206.279L456.653 260.41C457.092 262.428 455.513 264.27 453.495 264.27H440.335C437.966 264.27 436.124 266.201 436.124 268.482H458.232H478.762C482.008 268.569 484.377 265.674 483.763 262.603Z" fill="#CECECE"/>
<path id="SHAPE 34" d="M484.903 268.569H462.531L449.547 202.769C449.371 201.98 449.986 201.365 450.775 201.365H475.955L488.413 264.446C488.764 266.551 487.097 268.569 484.903 268.569Z" fill="#F4EFF0"/>
<path id="SHAPE 38" d="M458.32 268.569H462.531L461.391 262.603H457.092L458.32 268.569Z" fill="#F4EFF0"/>
<path id="SHAPE 35" d="M458.32 268.569C460.514 268.569 462.18 266.551 461.742 264.358L461.391 262.603H456.653L458.32 268.569Z" fill="#CECECE"/>
</g>
<path id="SHAPE 66" d="M375.587 319.454L303.295 338.492C283.643 343.668 263.727 329.719 254.164 306.645L366.2 283.746C376.026 281.202 386.115 287.08 388.66 296.906C391.292 306.82 385.414 316.91 375.587 319.454Z" fill="#3B323A"/>
<path id="SHAPE 68" d="M448.319 429.121L414.629 444.123L355.584 311.295C351.461 301.995 355.672 291.116 364.972 286.993C374.271 282.869 385.15 287.08 389.274 296.38L448.319 429.121Z" fill="#3B323A"/>
<path id="SHAPE 2" d="M197.839 292.872H573.514C578.076 292.872 581.849 289.099 581.849 284.537V276.641C581.849 272.079 578.076 268.306 573.514 268.306H197.839C193.277 268.306 189.505 272.079 189.505 276.641V284.537C189.505 289.099 193.189 292.872 197.839 292.872Z" fill="#F2F2F2"/>
<path id="SHAPE 73" d="M503.24 471.848L428.579 485.447C425.683 485.973 422.964 484.131 422.349 481.411L421.823 479.042C420.332 472.199 424.718 465.268 431.912 463.426L486.307 449.651C496.835 447.019 507.451 451.845 509.381 460.706L510.083 463.864C510.873 467.461 507.802 471.058 503.24 471.848Z" fill="#9126BF"/>
<path id="SHAPE 95" d="M506.135 465.092L422.7 480.27C422.525 480.27 422.349 480.357 422.174 480.357L422.437 481.41C423.051 484.218 425.771 485.972 428.666 485.446L503.327 471.847C507.89 471.058 511.048 467.46 510.258 463.863L510.171 463.6C508.942 464.302 507.626 464.829 506.135 465.092Z" fill="#CECECE"/>
<path id="SHAPE 89" d="M349.092 518.785L286.713 475.621C284.345 473.954 283.643 470.707 285.222 468.339L286.538 466.233C290.31 460.355 298.382 458.513 304.699 462.373L352.865 491.149C362.252 496.764 366.288 507.731 361.375 515.276L359.62 517.996C357.69 521.067 352.865 521.417 349.092 518.785Z" fill="#9126BF"/>
<path id="SHAPE 87" d="M355.935 516.066L286.187 467.812C286.012 467.725 285.924 467.549 285.748 467.461L285.222 468.339C283.73 470.708 284.345 473.954 286.713 475.621L349.092 518.785C352.865 521.418 357.69 521.067 359.62 517.996L359.795 517.733C358.479 517.469 357.163 516.855 355.935 516.066Z" fill="#CECECE"/>
<path id="SHAPE 86" d="M176.344 268.306H162.132C154.937 268.306 149.059 262.428 149.059 255.234V216.543H189.417V255.234C189.504 262.428 183.626 268.306 176.344 268.306Z" fill="#FF6161"/>
<path id="SHAPE 112" d="M153.621 221.807C144.234 221.807 136.689 229.44 136.689 238.74C136.689 248.04 144.322 255.673 153.621 255.673C162.921 255.673 170.554 248.04 170.554 238.74C170.554 229.44 162.921 221.807 153.621 221.807ZM153.621 251.988C146.34 251.988 140.374 246.022 140.374 238.74C140.374 231.458 146.34 225.492 153.621 225.492C160.903 225.492 166.869 231.458 166.869 238.74C166.782 246.11 160.903 251.988 153.621 251.988Z" fill="#BAD977"/>
<path id="SHAPE 97" d="M176.344 268.306H162.132C154.937 268.306 149.059 262.428 149.059 255.234V216.543H189.417V255.234C189.504 262.428 183.626 268.306 176.344 268.306Z" fill="#A3C55A"/>
<path id="SHAPE 108" d="M168.185 256.023C164.15 256.023 160.903 252.777 160.903 248.742V216.543H149.059V255.234C149.059 262.428 154.937 268.306 162.132 268.306H176.344C183.275 268.306 188.978 262.867 189.417 256.023H168.185Z" fill="#BAD977"/>
<path id="SHAPE 18" d="M335.493 268.306C336.371 266.025 336.809 263.569 336.809 261.024C336.809 249.356 327.422 239.968 315.753 239.968C304.085 239.968 294.697 249.356 294.697 261.024C294.697 263.569 295.136 266.025 296.013 268.306H335.493Z" fill="#FC9F6F"/>
<path id="bubble2" opacity="0.77" d="M164.851 209.525C168.001 209.525 170.554 206.972 170.554 203.822C170.554 200.672 168.001 198.119 164.851 198.119C161.702 198.119 159.149 200.672 159.149 203.822C159.149 206.972 161.702 209.525 164.851 209.525Z" fill="#64BDFF"/>
<path id="bubble1" opacity="0.77" d="M175.38 192.416C180.079 192.416 183.89 188.606 183.89 183.906C183.89 179.206 180.079 175.395 175.38 175.395C170.68 175.395 166.869 179.206 166.869 183.906C166.869 188.606 170.68 192.416 175.38 192.416Z" fill="#6FCBE8"/>
</g>
</svg>
