<svg width="55" height="55" viewBox="0 0 60 60" fill="none" xmlns="http://www.w3.org/2000/svg">
<g id="scroller">
<circle id="Ellipse 1" cx="27.9967" cy="27.9966" r="25.875" fill="" stroke="#CC6AD9" stroke-width="2.25"/>
<g id="material-symbols:arrow-downward-rounded">
<path id="Vector" d="M28.8405 36.7699C28.6811 36.7699 28.5317 36.7448 28.3922 36.6946C28.2528 36.6452 28.1233 36.5608 28.0038 36.4412L20.1147 28.5522C19.8756 28.3131 19.7561 28.029 19.7561 27.6999C19.7561 27.3716 19.8756 27.0879 20.1147 26.8489C20.3538 26.6098 20.6327 26.4903 20.9514 26.4903C21.2702 26.4903 21.5491 26.6098 21.7881 26.8489L27.6452 32.7059V19.3184C27.6452 18.9797 27.7599 18.7008 27.9894 18.4817C28.2181 18.2625 28.5018 18.153 28.8405 18.153C29.1791 18.153 29.4632 18.2673 29.6927 18.496C29.9214 18.7255 30.0358 19.0096 30.0358 19.3483V32.7059L35.8928 26.8489C36.1319 26.6098 36.4108 26.4903 36.7295 26.4903C37.0483 26.4903 37.3272 26.6098 37.5663 26.8489C37.8053 27.0879 37.9249 27.3716 37.9249 27.6999C37.9249 28.029 37.8053 28.3131 37.5663 28.5522L29.6772 36.4412C29.5577 36.5608 29.4282 36.6452 29.2887 36.6946C29.1493 36.7448 28.9999 36.7699 28.8405 36.7699Z" fill="#CC6AD9"/>
</g>
</g>
</svg>
